G04*
G04 #@! TF.GenerationSoftware,Altium Limited,Altium Designer,18.1.6 (161)*
G04*
G04 Layer_Physical_Order=2*
G04 Layer_Color=16711680*
%FSTAX25Y25*%
%MOIN*%
G70*
G01*
G75*
%ADD75C,0.19685*%
%ADD76C,0.09843*%
%ADD77R,0.09843X0.09843*%
G36*
X0231229Y0247934D02*
X0230572Y0247165D01*
X0229598Y0245575D01*
X0228885Y0243853D01*
X022845Y0242041D01*
X0228303Y0240182D01*
X022845Y0238324D01*
X0228885Y0236512D01*
X0229598Y0234789D01*
X0230572Y02332D01*
X0231783Y0231783D01*
X02332Y0230572D01*
X0234789Y0229598D01*
X0236512Y0228885D01*
X0238324Y022845D01*
X0240182Y0228303D01*
X0242041Y022845D01*
X0243853Y0228885D01*
X0245575Y0229598D01*
X0247165Y0230572D01*
X0247934Y0231229D01*
X0248388Y0231019D01*
Y0020999D01*
X0247934Y002079D01*
X0247165Y0021446D01*
X0245575Y002242D01*
X0243853Y0023134D01*
X0242041Y0023569D01*
X0240182Y0023715D01*
X0238324Y0023569D01*
X0236512Y0023134D01*
X0234789Y002242D01*
X02332Y0021446D01*
X0231783Y0020236D01*
X0230572Y0018818D01*
X0229598Y0017229D01*
X0228885Y0015507D01*
X022845Y0013694D01*
X0228303Y0011836D01*
X022845Y0009978D01*
X0228885Y0008165D01*
X0229598Y0006443D01*
X0230572Y0004854D01*
X0231229Y0004085D01*
X0231019Y0003631D01*
X0067227D01*
X0067153Y0004131D01*
X0067339Y0004187D01*
X0068541Y000483D01*
X0069595Y0005695D01*
X007046Y0006748D01*
X0071102Y0007951D01*
X0071498Y0009256D01*
X0071632Y0010612D01*
X0071498Y0011969D01*
X0071102Y0013274D01*
X007046Y0014476D01*
X0069595Y001553D01*
X0068541Y0016395D01*
X0067339Y0017038D01*
X0066034Y0017434D01*
X0064677Y0017567D01*
X006332Y0017434D01*
X0062015Y0017038D01*
X0060813Y0016395D01*
X0059759Y001553D01*
X0058894Y0014476D01*
X0058252Y0013274D01*
X0057856Y0011969D01*
X0057722Y0010612D01*
X0057856Y0009256D01*
X0058252Y0007951D01*
X0058894Y0006748D01*
X0059759Y0005695D01*
X0060813Y000483D01*
X0062015Y0004187D01*
X0062201Y0004131D01*
X0062127Y0003631D01*
X0020999D01*
X002079Y0004085D01*
X0021446Y0004854D01*
X002242Y0006443D01*
X0023134Y0008165D01*
X0023569Y0009978D01*
X0023715Y0011836D01*
X0023569Y0013694D01*
X0023134Y0015507D01*
X002242Y0017229D01*
X0021446Y0018818D01*
X0020236Y0020236D01*
X0018818Y0021446D01*
X0017229Y002242D01*
X0015507Y0023134D01*
X0013694Y0023569D01*
X0011836Y0023715D01*
X0009978Y0023569D01*
X0008165Y0023134D01*
X0006443Y002242D01*
X0004854Y0021446D01*
X0004085Y002079D01*
X0003631Y0020999D01*
Y0231019D01*
X0004085Y0231229D01*
X0004854Y0230572D01*
X0006443Y0229598D01*
X0008165Y0228885D01*
X0009978Y022845D01*
X0011836Y0228303D01*
X0013694Y022845D01*
X0015507Y0228885D01*
X0017229Y0229598D01*
X0018818Y0230572D01*
X0020236Y0231783D01*
X0021446Y02332D01*
X002242Y0234789D01*
X0023134Y0236512D01*
X0023569Y0238324D01*
X0023715Y0240182D01*
X0023569Y0242041D01*
X0023134Y0243853D01*
X002242Y0245575D01*
X0021446Y0247165D01*
X002079Y0247934D01*
X0020999Y0248388D01*
X0231019D01*
X0231229Y0247934D01*
D02*
G37*
%LPC*%
G36*
X0126009Y0206399D02*
X0120752Y0206227D01*
X0115516Y0205711D01*
X0110326Y0204854D01*
X0105203Y020366D01*
X0100169Y0202133D01*
X0095245Y0200279D01*
X0090454Y0198108D01*
X0085814Y0195629D01*
X0081347Y0192851D01*
X0077071Y0189787D01*
X0073005Y0186449D01*
X0069165Y0182853D01*
X0065569Y0179014D01*
X0062232Y0174947D01*
X0059168Y0170671D01*
X005639Y0166204D01*
X005391Y0161565D01*
X0051739Y0156773D01*
X0049886Y015185D01*
X0048359Y0146816D01*
X0047164Y0141692D01*
X0046308Y0136502D01*
X0045792Y0131267D01*
X004562Y0126009D01*
X0045792Y0120752D01*
X0046308Y0115516D01*
X0047164Y0110326D01*
X0048359Y0105203D01*
X0049886Y0100169D01*
X0051739Y0095245D01*
X005391Y0090454D01*
X005639Y0085814D01*
X0059168Y0081347D01*
X0062232Y0077071D01*
X0065569Y0073005D01*
X0069165Y0069165D01*
X0073005Y0065569D01*
X0077071Y0062232D01*
X0081347Y0059168D01*
X0085814Y005639D01*
X0090454Y005391D01*
X0095245Y0051739D01*
X0100169Y0049886D01*
X0105203Y0048359D01*
X0110326Y0047164D01*
X0115516Y0046308D01*
X0120752Y0045792D01*
X0126009Y004562D01*
X0131267Y0045792D01*
X0136502Y0046308D01*
X0141692Y0047164D01*
X0146816Y0048359D01*
X015185Y0049886D01*
X0156773Y0051739D01*
X0161565Y005391D01*
X0166204Y005639D01*
X0170671Y0059168D01*
X0174947Y0062232D01*
X0179014Y0065569D01*
X0182853Y0069165D01*
X0186449Y0073005D01*
X0189787Y0077071D01*
X0192851Y0081347D01*
X0195629Y0085814D01*
X0198108Y0090454D01*
X0200279Y0095245D01*
X0202133Y0100169D01*
X020366Y0105203D01*
X0204854Y0110326D01*
X0205711Y0115516D01*
X0206227Y0120752D01*
X0206399Y0126009D01*
X0206227Y0131267D01*
X0205711Y0136502D01*
X0204854Y0141692D01*
X020366Y0146816D01*
X0202133Y015185D01*
X0200279Y0156773D01*
X0198108Y0161565D01*
X0195629Y0166204D01*
X0192851Y0170671D01*
X0189787Y0174947D01*
X0186449Y0179014D01*
X0182853Y0182853D01*
X0179014Y0186449D01*
X0174947Y0189787D01*
X0170671Y0192851D01*
X0166204Y0195629D01*
X0161565Y0198108D01*
X0156773Y0200279D01*
X015185Y0202133D01*
X0146816Y020366D01*
X0141692Y0204854D01*
X0136502Y0205711D01*
X0131267Y0206227D01*
X0126009Y0206399D01*
D02*
G37*
G36*
X0031521Y004498D02*
X0029416Y0044814D01*
X0027362Y0044321D01*
X0025411Y0043513D01*
X002361Y004241D01*
X0022004Y0041038D01*
X0020633Y0039432D01*
X0019529Y0037631D01*
X0018721Y003568D01*
X0018228Y0033626D01*
X0018062Y0031521D01*
X0018228Y0029416D01*
X0018721Y0027362D01*
X0019529Y0025411D01*
X0020633Y002361D01*
X0022004Y0022004D01*
X002361Y0020633D01*
X0025411Y0019529D01*
X0027362Y0018721D01*
X0029416Y0018228D01*
X0031521Y0018062D01*
X0033626Y0018228D01*
X003568Y0018721D01*
X0037631Y0019529D01*
X0039432Y0020633D01*
X0041038Y0022004D01*
X004241Y002361D01*
X0043513Y0025411D01*
X0044321Y0027362D01*
X0044814Y0029416D01*
X004498Y0031521D01*
X0044814Y0033626D01*
X0044321Y003568D01*
X0043513Y0037631D01*
X004241Y0039432D01*
X0041038Y0041038D01*
X0039432Y004241D01*
X0037631Y0043513D01*
X003568Y0044321D01*
X0033626Y0044814D01*
X0031521Y004498D01*
D02*
G37*
G36*
X0050598Y0016534D02*
X0045177D01*
Y0011112D01*
X0050598D01*
Y0016534D01*
D02*
G37*
G36*
X0044177D02*
X0038756D01*
Y0011112D01*
X0044177D01*
Y0016534D01*
D02*
G37*
G36*
X0050598Y0010112D02*
X0045177D01*
Y0004691D01*
X0050598D01*
Y0010112D01*
D02*
G37*
G36*
X0044177D02*
X0038756D01*
Y0004691D01*
X0044177D01*
Y0010112D01*
D02*
G37*
%LPD*%
D75*
X0011836Y0240182D02*
D03*
X0240182D02*
D03*
Y0011836D02*
D03*
X0011836D02*
D03*
D76*
X0064677Y0010612D02*
D03*
D77*
X0044677D02*
D03*
M02*
