G04*
G04 #@! TF.GenerationSoftware,Altium Limited,Altium Designer,18.1.6 (161)*
G04*
G04 Layer_Physical_Order=1*
G04 Layer_Color=255*
%FSTAX25Y25*%
%MOIN*%
G70*
G01*
G75*
G04:AMPARAMS|DCode=16|XSize=30mil|YSize=47.24mil|CornerRadius=0mil|HoleSize=0mil|Usage=FLASHONLY|Rotation=19.379|XOffset=0mil|YOffset=0mil|HoleType=Round|Shape=Rectangle|*
%AMROTATEDRECTD16*
4,1,4,-0.00631,-0.02726,-0.02199,0.01731,0.00631,0.02726,0.02199,-0.01731,-0.00631,-0.02726,0.0*
%
%ADD16ROTATEDRECTD16*%

G04:AMPARAMS|DCode=17|XSize=102.36mil|YSize=59.06mil|CornerRadius=14.76mil|HoleSize=0mil|Usage=FLASHONLY|Rotation=347.762|XOffset=0mil|YOffset=0mil|HoleType=Round|Shape=RoundedRectangle|*
%AMROUNDEDRECTD17*
21,1,0.10236,0.02953,0,0,347.8*
21,1,0.07284,0.05906,0,0,347.8*
1,1,0.02953,0.03246,-0.02215*
1,1,0.02953,-0.03872,-0.00671*
1,1,0.02953,-0.03246,0.02215*
1,1,0.02953,0.03872,0.00671*
%
%ADD17ROUNDEDRECTD17*%
G04:AMPARAMS|DCode=18|XSize=102.36mil|YSize=59.06mil|CornerRadius=14.76mil|HoleSize=0mil|Usage=FLASHONLY|Rotation=287.797|XOffset=0mil|YOffset=0mil|HoleType=Round|Shape=RoundedRectangle|*
%AMROUNDEDRECTD18*
21,1,0.10236,0.02953,0,0,287.8*
21,1,0.07284,0.05906,0,0,287.8*
1,1,0.02953,-0.00293,-0.03919*
1,1,0.02953,-0.02519,0.03016*
1,1,0.02953,0.00293,0.03919*
1,1,0.02953,0.02519,-0.03016*
%
%ADD18ROUNDEDRECTD18*%
G04:AMPARAMS|DCode=19|XSize=102.36mil|YSize=59.06mil|CornerRadius=14.76mil|HoleSize=0mil|Usage=FLASHONLY|Rotation=119.634|XOffset=0mil|YOffset=0mil|HoleType=Round|Shape=RoundedRectangle|*
%AMROUNDEDRECTD19*
21,1,0.10236,0.02953,0,0,119.6*
21,1,0.07284,0.05906,0,0,119.6*
1,1,0.02953,-0.00517,0.03895*
1,1,0.02953,0.03084,-0.02435*
1,1,0.02953,0.00517,-0.03895*
1,1,0.02953,-0.03084,0.02435*
%
%ADD19ROUNDEDRECTD19*%
G04:AMPARAMS|DCode=20|XSize=102.36mil|YSize=59.06mil|CornerRadius=14.76mil|HoleSize=0mil|Usage=FLASHONLY|Rotation=311.686|XOffset=0mil|YOffset=0mil|HoleType=Round|Shape=RoundedRectangle|*
%AMROUNDEDRECTD20*
21,1,0.10236,0.02953,0,0,311.7*
21,1,0.07284,0.05906,0,0,311.7*
1,1,0.02953,0.01319,-0.03702*
1,1,0.02953,-0.03525,0.01738*
1,1,0.02953,-0.01319,0.03702*
1,1,0.02953,0.03525,-0.01738*
%
%ADD20ROUNDEDRECTD20*%
G04:AMPARAMS|DCode=21|XSize=102.36mil|YSize=59.06mil|CornerRadius=14.76mil|HoleSize=0mil|Usage=FLASHONLY|Rotation=251.733|XOffset=0mil|YOffset=0mil|HoleType=Round|Shape=RoundedRectangle|*
%AMROUNDEDRECTD21*
21,1,0.10236,0.02953,0,0,251.7*
21,1,0.07284,0.05906,0,0,251.7*
1,1,0.02953,-0.02543,-0.02996*
1,1,0.02953,-0.00261,0.03921*
1,1,0.02953,0.02543,0.02996*
1,1,0.02953,0.00261,-0.03921*
%
%ADD21ROUNDEDRECTD21*%
G04:AMPARAMS|DCode=22|XSize=102.36mil|YSize=59.06mil|CornerRadius=14.76mil|HoleSize=0mil|Usage=FLASHONLY|Rotation=84.255|XOffset=0mil|YOffset=0mil|HoleType=Round|Shape=RoundedRectangle|*
%AMROUNDEDRECTD22*
21,1,0.10236,0.02953,0,0,84.3*
21,1,0.07284,0.05906,0,0,84.3*
1,1,0.02953,0.01834,0.03476*
1,1,0.02953,0.01104,-0.03771*
1,1,0.02953,-0.01834,-0.03476*
1,1,0.02953,-0.01104,0.03771*
%
%ADD22ROUNDEDRECTD22*%
G04:AMPARAMS|DCode=23|XSize=102.36mil|YSize=59.06mil|CornerRadius=14.76mil|HoleSize=0mil|Usage=FLASHONLY|Rotation=276.117|XOffset=0mil|YOffset=0mil|HoleType=Round|Shape=RoundedRectangle|*
%AMROUNDEDRECTD23*
21,1,0.10236,0.02953,0,0,276.1*
21,1,0.07284,0.05906,0,0,276.1*
1,1,0.02953,-0.01080,-0.03778*
1,1,0.02953,-0.01856,0.03464*
1,1,0.02953,0.01080,0.03778*
1,1,0.02953,0.01856,-0.03464*
%
%ADD23ROUNDEDRECTD23*%
G04:AMPARAMS|DCode=24|XSize=102.36mil|YSize=59.06mil|CornerRadius=14.76mil|HoleSize=0mil|Usage=FLASHONLY|Rotation=215.602|XOffset=0mil|YOffset=0mil|HoleType=Round|Shape=RoundedRectangle|*
%AMROUNDEDRECTD24*
21,1,0.10236,0.02953,0,0,215.6*
21,1,0.07284,0.05906,0,0,215.6*
1,1,0.02953,-0.03820,-0.00920*
1,1,0.02953,0.02101,0.03321*
1,1,0.02953,0.03820,0.00920*
1,1,0.02953,-0.02101,-0.03321*
%
%ADD24ROUNDEDRECTD24*%
G04:AMPARAMS|DCode=25|XSize=102.36mil|YSize=59.06mil|CornerRadius=14.76mil|HoleSize=0mil|Usage=FLASHONLY|Rotation=46.965|XOffset=0mil|YOffset=0mil|HoleType=Round|Shape=RoundedRectangle|*
%AMROUNDEDRECTD25*
21,1,0.10236,0.02953,0,0,47.0*
21,1,0.07284,0.05906,0,0,47.0*
1,1,0.02953,0.03564,0.01654*
1,1,0.02953,-0.01406,-0.03669*
1,1,0.02953,-0.03564,-0.01654*
1,1,0.02953,0.01406,0.03669*
%
%ADD25ROUNDEDRECTD25*%
G04:AMPARAMS|DCode=26|XSize=102.36mil|YSize=59.06mil|CornerRadius=14.76mil|HoleSize=0mil|Usage=FLASHONLY|Rotation=239.531|XOffset=0mil|YOffset=0mil|HoleType=Round|Shape=RoundedRectangle|*
%AMROUNDEDRECTD26*
21,1,0.10236,0.02953,0,0,239.5*
21,1,0.07284,0.05906,0,0,239.5*
1,1,0.02953,-0.03119,-0.02390*
1,1,0.02953,0.00574,0.03887*
1,1,0.02953,0.03119,0.02390*
1,1,0.02953,-0.00574,-0.03887*
%
%ADD26ROUNDEDRECTD26*%
G04:AMPARAMS|DCode=27|XSize=102.36mil|YSize=59.06mil|CornerRadius=14.76mil|HoleSize=0mil|Usage=FLASHONLY|Rotation=180.472|XOffset=0mil|YOffset=0mil|HoleType=Round|Shape=RoundedRectangle|*
%AMROUNDEDRECTD27*
21,1,0.10236,0.02953,0,0,180.5*
21,1,0.07284,0.05906,0,0,180.5*
1,1,0.02953,-0.03654,0.01446*
1,1,0.02953,0.03630,0.01506*
1,1,0.02953,0.03654,-0.01446*
1,1,0.02953,-0.03630,-0.01506*
%
%ADD27ROUNDEDRECTD27*%
G04:AMPARAMS|DCode=28|XSize=102.36mil|YSize=59.06mil|CornerRadius=14.76mil|HoleSize=0mil|Usage=FLASHONLY|Rotation=12.011|XOffset=0mil|YOffset=0mil|HoleType=Round|Shape=RoundedRectangle|*
%AMROUNDEDRECTD28*
21,1,0.10236,0.02953,0,0,12.0*
21,1,0.07284,0.05906,0,0,12.0*
1,1,0.02953,0.03869,-0.00686*
1,1,0.02953,-0.03255,-0.02202*
1,1,0.02953,-0.03869,0.00686*
1,1,0.02953,0.03255,0.02202*
%
%ADD28ROUNDEDRECTD28*%
G04:AMPARAMS|DCode=29|XSize=102.36mil|YSize=59.06mil|CornerRadius=14.76mil|HoleSize=0mil|Usage=FLASHONLY|Rotation=203.438|XOffset=0mil|YOffset=0mil|HoleType=Round|Shape=RoundedRectangle|*
%AMROUNDEDRECTD29*
21,1,0.10236,0.02953,0,0,203.4*
21,1,0.07284,0.05906,0,0,203.4*
1,1,0.02953,-0.03928,-0.00094*
1,1,0.02953,0.02754,0.02803*
1,1,0.02953,0.03928,0.00094*
1,1,0.02953,-0.02754,-0.02803*
%
%ADD29ROUNDEDRECTD29*%
G04:AMPARAMS|DCode=30|XSize=102.36mil|YSize=59.06mil|CornerRadius=14.76mil|HoleSize=0mil|Usage=FLASHONLY|Rotation=144.007|XOffset=0mil|YOffset=0mil|HoleType=Round|Shape=RoundedRectangle|*
%AMROUNDEDRECTD30*
21,1,0.10236,0.02953,0,0,144.0*
21,1,0.07284,0.05906,0,0,144.0*
1,1,0.02953,-0.02079,0.03335*
1,1,0.02953,0.03814,-0.00946*
1,1,0.02953,0.02079,-0.03335*
1,1,0.02953,-0.03814,0.00946*
%
%ADD30ROUNDEDRECTD30*%
G04:AMPARAMS|DCode=31|XSize=102.36mil|YSize=59.06mil|CornerRadius=14.76mil|HoleSize=0mil|Usage=FLASHONLY|Rotation=335.136|XOffset=0mil|YOffset=0mil|HoleType=Round|Shape=RoundedRectangle|*
%AMROUNDEDRECTD31*
21,1,0.10236,0.02953,0,0,335.1*
21,1,0.07284,0.05906,0,0,335.1*
1,1,0.02953,0.02683,-0.02871*
1,1,0.02953,-0.03925,0.00192*
1,1,0.02953,-0.02683,0.02871*
1,1,0.02953,0.03925,-0.00192*
%
%ADD31ROUNDEDRECTD31*%
G04:AMPARAMS|DCode=32|XSize=102.36mil|YSize=59.06mil|CornerRadius=14.76mil|HoleSize=0mil|Usage=FLASHONLY|Rotation=299.392|XOffset=0mil|YOffset=0mil|HoleType=Round|Shape=RoundedRectangle|*
%AMROUNDEDRECTD32*
21,1,0.10236,0.02953,0,0,299.4*
21,1,0.07284,0.05906,0,0,299.4*
1,1,0.02953,0.00501,-0.03898*
1,1,0.02953,-0.03074,0.02448*
1,1,0.02953,-0.00501,0.03898*
1,1,0.02953,0.03074,-0.02448*
%
%ADD32ROUNDEDRECTD32*%
G04:AMPARAMS|DCode=33|XSize=30mil|YSize=47.24mil|CornerRadius=0mil|HoleSize=0mil|Usage=FLASHONLY|Rotation=97.420|XOffset=0mil|YOffset=0mil|HoleType=Round|Shape=Rectangle|*
%AMROTATEDRECTD33*
4,1,4,0.02536,-0.01182,-0.02149,-0.01793,-0.02536,0.01182,0.02149,0.01793,0.02536,-0.01182,0.0*
%
%ADD33ROTATEDRECTD33*%

G04:AMPARAMS|DCode=34|XSize=30mil|YSize=47.24mil|CornerRadius=0mil|HoleSize=0mil|Usage=FLASHONLY|Rotation=123.970|XOffset=0mil|YOffset=0mil|HoleType=Round|Shape=Rectangle|*
%AMROTATEDRECTD34*
4,1,4,0.02797,0.00076,-0.01121,-0.02564,-0.02797,-0.00076,0.01121,0.02564,0.02797,0.00076,0.0*
%
%ADD34ROTATEDRECTD34*%

G04:AMPARAMS|DCode=35|XSize=30mil|YSize=47.24mil|CornerRadius=0mil|HoleSize=0mil|Usage=FLASHONLY|Rotation=270.559|XOffset=0mil|YOffset=0mil|HoleType=Round|Shape=Rectangle|*
%AMROTATEDRECTD35*
4,1,4,-0.02377,0.01477,0.02348,0.01523,0.02377,-0.01477,-0.02348,-0.01523,-0.02377,0.01477,0.0*
%
%ADD35ROTATEDRECTD35*%

G04:AMPARAMS|DCode=36|XSize=30mil|YSize=47.24mil|CornerRadius=0mil|HoleSize=0mil|Usage=FLASHONLY|Rotation=195.119|XOffset=0mil|YOffset=0mil|HoleType=Round|Shape=Rectangle|*
%AMROTATEDRECTD36*
4,1,4,0.00832,0.02672,0.02064,-0.01889,-0.00832,-0.02672,-0.02064,0.01889,0.00832,0.02672,0.0*
%
%ADD36ROTATEDRECTD36*%

G04:AMPARAMS|DCode=37|XSize=30mil|YSize=47.24mil|CornerRadius=0mil|HoleSize=0mil|Usage=FLASHONLY|Rotation=340.051|XOffset=0mil|YOffset=0mil|HoleType=Round|Shape=Rectangle|*
%AMROTATEDRECTD37*
4,1,4,-0.02216,-0.01709,-0.00604,0.02732,0.02216,0.01709,0.00604,-0.02732,-0.02216,-0.01709,0.0*
%
%ADD37ROTATEDRECTD37*%

G04:AMPARAMS|DCode=38|XSize=102.36mil|YSize=59.06mil|CornerRadius=14.76mil|HoleSize=0mil|Usage=FLASHONLY|Rotation=155.890|XOffset=0mil|YOffset=0mil|HoleType=Round|Shape=RoundedRectangle|*
%AMROUNDEDRECTD38*
21,1,0.10236,0.02953,0,0,155.9*
21,1,0.07284,0.05906,0,0,155.9*
1,1,0.02953,-0.02721,0.02835*
1,1,0.02953,0.03927,-0.00140*
1,1,0.02953,0.02721,-0.02835*
1,1,0.02953,-0.03927,0.00140*
%
%ADD38ROUNDEDRECTD38*%
G04:AMPARAMS|DCode=39|XSize=30mil|YSize=47.24mil|CornerRadius=0mil|HoleSize=0mil|Usage=FLASHONLY|Rotation=159.109|XOffset=0mil|YOffset=0mil|HoleType=Round|Shape=Rectangle|*
%AMROTATEDRECTD39*
4,1,4,0.02244,0.01672,0.00559,-0.02742,-0.02244,-0.01672,-0.00559,0.02742,0.02244,0.01672,0.0*
%
%ADD39ROTATEDRECTD39*%

G04:AMPARAMS|DCode=40|XSize=102.36mil|YSize=59.06mil|CornerRadius=14.76mil|HoleSize=0mil|Usage=FLASHONLY|Rotation=227.973|XOffset=0mil|YOffset=0mil|HoleType=Round|Shape=RoundedRectangle|*
%AMROUNDEDRECTD40*
21,1,0.10236,0.02953,0,0,228.0*
21,1,0.07284,0.05906,0,0,228.0*
1,1,0.02953,-0.03535,-0.01717*
1,1,0.02953,0.01341,0.03694*
1,1,0.02953,0.03535,0.01717*
1,1,0.02953,-0.01341,-0.03694*
%
%ADD40ROUNDEDRECTD40*%
G04:AMPARAMS|DCode=41|XSize=102.36mil|YSize=59.06mil|CornerRadius=14.76mil|HoleSize=0mil|Usage=FLASHONLY|Rotation=24.460|XOffset=0mil|YOffset=0mil|HoleType=Round|Shape=RoundedRectangle|*
%AMROUNDEDRECTD41*
21,1,0.10236,0.02953,0,0,24.5*
21,1,0.07284,0.05906,0,0,24.5*
1,1,0.02953,0.03926,0.00164*
1,1,0.02953,-0.02704,-0.02852*
1,1,0.02953,-0.03926,-0.00164*
1,1,0.02953,0.02704,0.02852*
%
%ADD41ROUNDEDRECTD41*%
G04:AMPARAMS|DCode=42|XSize=30mil|YSize=47.24mil|CornerRadius=0mil|HoleSize=0mil|Usage=FLASHONLY|Rotation=51.575|XOffset=0mil|YOffset=0mil|HoleType=Round|Shape=Rectangle|*
%AMROTATEDRECTD42*
4,1,4,0.00918,-0.02643,-0.02783,0.00293,-0.00918,0.02643,0.02783,-0.00293,0.00918,-0.02643,0.0*
%
%ADD42ROTATEDRECTD42*%

%ADD74C,0.03000*%
%ADD75C,0.19685*%
%ADD76C,0.09843*%
%ADD77R,0.09843X0.09843*%
G36*
X0136878Y02423D02*
X0136287Y0242279D01*
X0135713Y0242215D01*
X0135157Y0242109D01*
X0134619Y0241961D01*
X0134098Y024177D01*
X0133594Y0241536D01*
X0133109Y0241261D01*
X013264Y0240942D01*
X013219Y0240582D01*
X0131757Y0240179D01*
X0127514D01*
X0127887Y0240582D01*
X0128158Y0240942D01*
X0128326Y0241261D01*
X0128392Y0241536D01*
X0128355Y024177D01*
X0128216Y0241961D01*
X0127974Y0242109D01*
X012763Y0242215D01*
X0127184Y0242279D01*
X0126635Y02423D01*
X0133257Y02453D01*
X0136878Y02423D01*
D02*
G37*
G36*
X0096539Y0238227D02*
X0096669Y0238067D01*
X0097164Y0237523D01*
X010052Y0234104D01*
X0098963Y0231418D01*
X0098318Y0232041D01*
X0097207Y0232984D01*
X0096739Y0233304D01*
X009633Y0233523D01*
X009598Y023364D01*
X0095689Y0233657D01*
X0095456Y0233572D01*
X0095283Y0233387D01*
X0095168Y02331D01*
X0096487Y0238313D01*
X0096539Y0238227D01*
D02*
G37*
G36*
X00598Y02341D02*
X00568Y02296D01*
X005677Y023017D01*
X005668Y023068D01*
X005653Y023113D01*
X005632Y023152D01*
X005605Y023185D01*
X005572Y023212D01*
X005533Y023233D01*
X005488Y023248D01*
X005437Y023257D01*
X00538Y02326D01*
Y02356D01*
X005437Y0235618D01*
X005488Y0235672D01*
X005533Y0235762D01*
X005572Y0235888D01*
X005605Y023605D01*
X005632Y0236248D01*
X005653Y0236482D01*
X005668Y0236752D01*
X005677Y0237058D01*
X00568Y02374D01*
X00598Y02341D01*
D02*
G37*
G36*
X0126637Y0228669D02*
X0126682Y0228157D01*
X0126757Y0227706D01*
X0126862Y0227315D01*
X0126997Y0226985D01*
X0127162Y0226716D01*
X0127357Y0226506D01*
X0127582Y0226358D01*
X0127837Y022627D01*
X0128122Y0226242D01*
X0122122Y0226192D01*
X0122407Y0226225D01*
X0122662Y0226317D01*
X0122887Y022647D01*
X0123082Y0226682D01*
X0123247Y0226955D01*
X0123382Y0227287D01*
X0123487Y0227679D01*
X0123562Y0228132D01*
X0123607Y0228644D01*
X0123622Y0229217D01*
X0126622Y0229241D01*
X0126637Y0228669D01*
D02*
G37*
G36*
X0106914Y0225905D02*
X0103852Y0225253D01*
X0103858Y0225273D01*
X0103863Y022533D01*
X0103874Y0225723D01*
X0103881Y0227121D01*
X0106881D01*
X0106914Y0225905D01*
D02*
G37*
G36*
X0215831Y0224118D02*
X0216282Y0223758D01*
X021675Y0223439D01*
X0217235Y0223164D01*
X0217739Y022293D01*
X021826Y0222739D01*
X0218798Y0222591D01*
X0219354Y0222485D01*
X0219928Y0222421D01*
X0220519Y02224D01*
X0216898Y02194D01*
X0210277Y02224D01*
X0210825Y0222421D01*
X0211272Y0222485D01*
X0211616Y0222591D01*
X0211857Y0222739D01*
X0211996Y022293D01*
X0212033Y0223164D01*
X0211967Y0223439D01*
X0211799Y0223758D01*
X0211528Y0224118D01*
X0211155Y0224521D01*
X0215398D01*
X0215831Y0224118D01*
D02*
G37*
G36*
X0207913Y0224892D02*
X0207722Y022443D01*
X01971D01*
X0196186Y022431D01*
X0195335Y0223957D01*
X0194604Y0223396D01*
X0182448Y0211241D01*
X0182279Y0211332D01*
X0181389Y0211546D01*
X0180474Y0211522D01*
X0179596Y0211262D01*
X0178816Y0210783D01*
X0178186Y0210119D01*
X0176451Y020773D01*
X0176014Y0206926D01*
X0175801Y0206036D01*
X0175825Y0205121D01*
X0176085Y0204243D01*
X0176563Y0203463D01*
X0177227Y0202833D01*
X018312Y0198552D01*
X0183925Y0198116D01*
X0184815Y0197902D01*
X018573Y0197926D01*
X0186607Y0198186D01*
X0187388Y0198665D01*
X0188018Y0199329D01*
X0189753Y0201718D01*
X019019Y0202522D01*
X0190403Y0203412D01*
X0190379Y0204327D01*
X0190119Y0205205D01*
X0189641Y0205985D01*
X0188977Y0206615D01*
X0188611Y0206881D01*
X0188572Y0207379D01*
X0198562Y021737D01*
X0229238D01*
X024167Y0204938D01*
Y0175508D01*
X024117Y0175261D01*
X0240702Y017562D01*
X0239851Y0175973D01*
X0238937Y0176093D01*
X0228483D01*
X0227569Y0175973D01*
X0226717Y017562D01*
X0225986Y0175059D01*
X021614Y0165212D01*
X0215579Y0164481D01*
X0215226Y016363D01*
X0215106Y0162716D01*
Y0161979D01*
X0215055Y0161963D01*
X0214227Y0161573D01*
X0213528Y0160983D01*
X0213005Y0160231D01*
X0212696Y015937D01*
X0212619Y0158457D01*
X0212781Y0157556D01*
X0214997Y0150618D01*
X0215387Y014979D01*
X0215978Y0149091D01*
X021673Y0148569D01*
X0217591Y0148259D01*
X0218503Y0148182D01*
X0219404Y0148345D01*
X0222217Y0149243D01*
X0223045Y0149633D01*
X0223744Y0150224D01*
X0224266Y0150975D01*
X0224576Y0151837D01*
X0224653Y0152749D01*
X022449Y015365D01*
X0222275Y0160588D01*
X0222166Y0160819D01*
Y0161254D01*
X0229945Y0169033D01*
X0237475D01*
X024167Y0164838D01*
Y0136077D01*
X0241171Y0136045D01*
X0241018Y0137215D01*
X0237147Y0136711D01*
X0237145Y0136712D01*
X022767D01*
X0227287Y014035D01*
X0227073Y014124D01*
X0226636Y0142045D01*
X0226005Y0142708D01*
X0225224Y0143186D01*
X0224347Y0143446D01*
X0223432Y014347D01*
X0220495Y014316D01*
X0219605Y0142946D01*
X0218801Y0142509D01*
X0218137Y0141878D01*
X0217659Y0141098D01*
X02174Y014022D01*
X0217376Y0139305D01*
X021814Y0132062D01*
X0218354Y0131172D01*
X0218791Y0130368D01*
X0219421Y0129704D01*
X0220202Y0129226D01*
X022108Y0128966D01*
X0221995Y0128943D01*
X0224931Y0129252D01*
X0225821Y0129466D01*
X0226162Y0129651D01*
X0233205D01*
X0233271Y0129147D01*
X023294Y0128797D01*
X0232636Y0128757D01*
X0231784Y0128405D01*
X0231053Y0127844D01*
X0226236Y0123026D01*
X0223497Y0123304D01*
X0222582Y0123276D01*
X0221706Y0123013D01*
X0220927Y0122532D01*
X0220299Y0121866D01*
X0219865Y012106D01*
X0219655Y0120169D01*
X021892Y0112923D01*
X0218948Y0112007D01*
X0219211Y0111131D01*
X0219692Y0110352D01*
X0220358Y0109724D01*
X0221164Y0109291D01*
X0222055Y010908D01*
X0224993Y0108782D01*
X0225908Y010881D01*
X0226785Y0109073D01*
X0227563Y0109554D01*
X0228191Y0110221D01*
X0228625Y0111027D01*
X0228835Y0111917D01*
X0229255Y0116061D01*
X023454Y0121346D01*
X023816Y0121817D01*
X0238165D01*
X0238621Y0121877D01*
X0241294Y0122225D01*
X024167Y0121896D01*
Y0087565D01*
X02369Y0082796D01*
X0224031Y0095664D01*
X0224717Y0097777D01*
X0224883Y0098677D01*
X0224811Y0099589D01*
X0224505Y0100452D01*
X0223986Y0101206D01*
X022329Y01018D01*
X0222463Y0102194D01*
X0219655Y0103105D01*
X0218755Y0103271D01*
X0217842Y0103199D01*
X0216979Y0102893D01*
X0216225Y0102374D01*
X0215631Y0101678D01*
X0215237Y0100851D01*
X021299Y0093923D01*
X0212824Y0093023D01*
X0212896Y0092111D01*
X0213202Y0091248D01*
X0213721Y0090494D01*
X0214417Y00899D01*
X0215244Y0089506D01*
X0218052Y0088595D01*
X0218952Y0088429D01*
X0219865Y0088501D01*
X0220728Y0088807D01*
X0220832Y0088879D01*
X023337Y0076341D01*
Y006418D01*
X0201092Y0031903D01*
X020063Y0032094D01*
Y0033345D01*
X020063Y0033345D01*
X020051Y0034259D01*
X0200157Y003511D01*
X0199596Y0035842D01*
X0190233Y0045205D01*
X0190236Y0045501D01*
X0190713Y0046283D01*
X0190972Y0047161D01*
X0190994Y0048076D01*
X0190779Y0048965D01*
X0190341Y0049769D01*
X0188601Y0052155D01*
X018797Y0052818D01*
X0187188Y0053294D01*
X018631Y0053553D01*
X0185395Y0053575D01*
X0184505Y005336D01*
X0183702Y0052922D01*
X0177817Y004863D01*
X0177154Y0047999D01*
X0176677Y0047218D01*
X0176419Y0046339D01*
X0176396Y0045424D01*
X0176612Y0044535D01*
X017705Y0043731D01*
X017879Y0041345D01*
X0179421Y0040683D01*
X0180202Y0040206D01*
X018108Y0039947D01*
X0181995Y0039925D01*
X0182885Y004014D01*
X0183689Y0040578D01*
X0184374Y0041078D01*
X019357Y0031883D01*
Y0024381D01*
X018Y0010811D01*
X0129099D01*
X0128878Y0011259D01*
X0129068Y0011508D01*
X0129421Y0012359D01*
X0129541Y0013273D01*
Y0023391D01*
X0129659Y0023391D01*
X0130566Y0023511D01*
X0131411Y0023863D01*
X0132137Y0024421D01*
X0132693Y0025148D01*
X0133043Y0025994D01*
X0133161Y0026901D01*
X0133158Y0029854D01*
X0133037Y0030762D01*
X0132686Y0031607D01*
X0132128Y0032332D01*
X0131401Y0032889D01*
X0130555Y0033238D01*
X0129647Y0033356D01*
X0122364Y0033348D01*
X0121456Y0033227D01*
X0120611Y0032876D01*
X0119885Y0032318D01*
X0119329Y0031591D01*
X011898Y0030745D01*
X0118861Y0029837D01*
X0118865Y0026885D01*
X0118985Y0025977D01*
X0119337Y0025132D01*
X0119895Y0024407D01*
X0120622Y002385D01*
X0121468Y0023501D01*
X0122375Y0023382D01*
X0122481Y0023277D01*
Y0014735D01*
X0117276Y000953D01*
X0080362D01*
X0076784Y0013109D01*
X0076053Y001367D01*
X0075201Y0014022D01*
X0074288Y0014143D01*
X0070638D01*
X007046Y0014476D01*
X0069595Y001553D01*
X0068541Y0016395D01*
X0067339Y0017038D01*
X0066034Y0017434D01*
X0065017Y0017534D01*
Y0038408D01*
X0067698Y0041089D01*
X0068393Y0040584D01*
X0069197Y0040148D01*
X0070087Y0039934D01*
X0071002Y0039959D01*
X007188Y0040219D01*
X007266Y0040698D01*
X007329Y0041362D01*
X0075024Y0043752D01*
X0075461Y0044556D01*
X0075674Y0045446D01*
X007565Y0046362D01*
X0075389Y0047239D01*
X0074911Y0048019D01*
X0074246Y0048649D01*
X0068352Y0052927D01*
X0067547Y0053364D01*
X0066657Y0053577D01*
X0065742Y0053553D01*
X0064864Y0053292D01*
X0064084Y0052814D01*
X0063455Y0052149D01*
X006172Y004976D01*
X0061284Y0048955D01*
X006107Y0048065D01*
X0061095Y004715D01*
X0061355Y0046272D01*
X0061834Y0045492D01*
X0061838Y0045213D01*
X005899Y0042366D01*
X0058429Y0041635D01*
X0058077Y0040784D01*
X0057956Y003987D01*
Y0013803D01*
X0058077Y0012889D01*
X005811Y0012808D01*
X0057856Y0011969D01*
X0057722Y0010612D01*
X0057856Y0009256D01*
X0058252Y0007951D01*
X0058894Y0006748D01*
X0059759Y0005695D01*
X0060813Y000483D01*
X0062015Y0004187D01*
X0062201Y0004131D01*
X0062127Y0003631D01*
X0020999D01*
X002079Y0004085D01*
X0021446Y0004854D01*
X002242Y0006443D01*
X0023134Y0008165D01*
X0023569Y0009978D01*
X0023715Y0011836D01*
X0023569Y0013694D01*
X0023134Y0015507D01*
X002242Y0017229D01*
X0021446Y0018818D01*
X0020236Y0020236D01*
X0018818Y0021446D01*
X0017229Y002242D01*
X0015507Y0023134D01*
X0013694Y0023569D01*
X0011836Y0023715D01*
X0009978Y0023569D01*
X0008165Y0023134D01*
X0006443Y002242D01*
X0004854Y0021446D01*
X0004085Y002079D01*
X0003631Y0020999D01*
Y010656D01*
X0004131Y0106729D01*
X0004304Y0106504D01*
X0017433Y0093375D01*
X0018164Y0092813D01*
X0019016Y0092461D01*
X0019929Y0092341D01*
X0027881D01*
X002835Y009088D01*
X0028741Y0090053D01*
X0029333Y0089355D01*
X0030086Y0088833D01*
X0030947Y0088525D01*
X003186Y008845D01*
X003276Y0088613D01*
X0035572Y0089516D01*
X0036399Y0089907D01*
X0037097Y0090499D01*
X0037619Y0091252D01*
X0037927Y0092113D01*
X0038002Y0093026D01*
X0037839Y0093926D01*
X0035612Y0100861D01*
X0035221Y0101689D01*
X0034629Y0102387D01*
X0033877Y0102908D01*
X0033015Y0103217D01*
X0032103Y0103292D01*
X0031202Y0103128D01*
X0028391Y0102226D01*
X0027563Y0101834D01*
X0026865Y0101242D01*
X0026344Y010049D01*
X0026035Y0099628D01*
X0026017Y0099401D01*
X0021392D01*
X001033Y0110462D01*
Y0117054D01*
X0013082Y0117081D01*
X0017096Y0113067D01*
X0017827Y0112506D01*
X0018678Y0112153D01*
X0019592Y0112033D01*
X0023695D01*
X0023761Y0111411D01*
X0023977Y0110522D01*
X0024415Y0109718D01*
X0025047Y0109055D01*
X0025828Y0108579D01*
X0026706Y010832D01*
X0027621Y0108298D01*
X0030557Y0108613D01*
X0031447Y0108828D01*
X003225Y0109267D01*
X0032913Y0109898D01*
X003339Y011068D01*
X0033648Y0111558D01*
X003367Y0112473D01*
X0032894Y0119715D01*
X0032678Y0120605D01*
X003224Y0121408D01*
X0031608Y0122071D01*
X0030827Y0122548D01*
X0029949Y0122806D01*
X0029034Y0122828D01*
X0026098Y0122513D01*
X0025208Y0122298D01*
X0024405Y0121859D01*
X0023742Y0121228D01*
X0023265Y0120446D01*
X0023007Y0119568D01*
X0022996Y0119093D01*
X0021054D01*
X0018916Y0121231D01*
X0018888Y0124138D01*
X0014772Y0124098D01*
X001456Y0124126D01*
X0014313Y0124093D01*
X0010685Y0124058D01*
X001033Y0124409D01*
Y0124954D01*
X001427Y0124993D01*
X0014483Y0124965D01*
X0014729Y0124997D01*
X0018879Y0125038D01*
X0018851Y0127871D01*
X00218Y0130819D01*
X0022414Y0130727D01*
X0022718Y0130237D01*
X0023384Y012961D01*
X0024191Y0129177D01*
X0025082Y0128967D01*
X002802Y0128671D01*
X0028935Y0128699D01*
X0029811Y0128963D01*
X0030589Y0129445D01*
X0031216Y0130112D01*
X003165Y0130918D01*
X0031859Y0131809D01*
X0032588Y0139056D01*
X003256Y0139971D01*
X0032296Y0140847D01*
X0031815Y0141626D01*
X0031148Y0142253D01*
X0030342Y0142686D01*
X0029451Y0142896D01*
X0026513Y0143191D01*
X0025598Y0143163D01*
X0024721Y0142899D01*
X0023943Y0142418D01*
X0023316Y0141751D01*
X0022883Y0140945D01*
X0022673Y0140053D01*
X0022613Y0139462D01*
X0021919D01*
X0021005Y0139341D01*
X0020154Y0138988D01*
X0019423Y0138427D01*
X0012976Y0131981D01*
X0010685Y0131958D01*
X001033Y013231D01*
Y0177438D01*
X0011508Y0178615D01*
X001197Y0178424D01*
Y0173675D01*
X001209Y0172762D01*
X0012443Y017191D01*
X0013004Y0171179D01*
X0027055Y0157128D01*
X0026365Y015504D01*
X0026194Y0154141D01*
X0026262Y0153228D01*
X0026564Y0152364D01*
X0027078Y0151607D01*
X0027772Y015101D01*
X0028596Y0150612D01*
X00314Y0149686D01*
X0032299Y0149515D01*
X0033212Y0149583D01*
X0034076Y0149884D01*
X0034833Y0150399D01*
X0035431Y0151092D01*
X0035829Y0151917D01*
X0038112Y0158833D01*
X0038283Y0159732D01*
X0038215Y0160645D01*
X0037914Y016151D01*
X0037398Y0162266D01*
X0036705Y0162864D01*
X0035881Y0163262D01*
X0033077Y0164187D01*
X0032178Y0164358D01*
X0031265Y0164291D01*
X0030401Y0163989D01*
X0030268Y0163899D01*
X001903Y0175137D01*
Y01876D01*
Y0202838D01*
X0046762Y023057D01*
X005477D01*
Y0216389D01*
X005489Y0215475D01*
X0055243Y0214624D01*
X0055804Y0213893D01*
X0062029Y0207667D01*
X0062025Y0207439D01*
X0061541Y0206662D01*
X0061275Y0205787D01*
X0061245Y0204872D01*
X0061452Y020398D01*
X0061884Y0203173D01*
X0063603Y0200772D01*
X0064228Y0200104D01*
X0065005Y019962D01*
X0065881Y0199354D01*
X0066796Y0199324D01*
X0067687Y0199531D01*
X0068495Y0199962D01*
X0074417Y0204202D01*
X0075085Y0204828D01*
X0075569Y0205605D01*
X0075835Y0206481D01*
X0075865Y0207396D01*
X0075658Y0208287D01*
X0075226Y0209095D01*
X0073507Y0211495D01*
X0072882Y0212164D01*
X0072105Y0212647D01*
X0071229Y0212913D01*
X0070314Y0212944D01*
X0069423Y0212736D01*
X0068615Y0212305D01*
X0067893Y0211788D01*
X006183Y0217851D01*
Y02341D01*
Y0235938D01*
X0066162Y024027D01*
X0094116D01*
X0094182Y0239774D01*
X0091147Y0238954D01*
X0092224Y0234968D01*
X0092254Y0234742D01*
X0092344Y0234525D01*
X0093423Y0230532D01*
X0096222Y0231288D01*
X010042Y0227089D01*
X010029Y0226513D01*
X0099919Y0226381D01*
X0099165Y0225863D01*
X0098571Y0225167D01*
X0098177Y022434D01*
X009801Y022344D01*
X0098082Y0222528D01*
X0098696Y021964D01*
X0099002Y0218777D01*
X0099521Y0218022D01*
X0100217Y0217428D01*
X0101043Y0217034D01*
X0101943Y0216868D01*
X0102856Y021694D01*
X010998Y0218455D01*
X0110843Y0218761D01*
X0111597Y021928D01*
X0112191Y0219976D01*
X0112585Y0220802D01*
X0112752Y0221702D01*
X011268Y0222615D01*
X0112065Y0225503D01*
X0111759Y0226365D01*
X0111241Y022712D01*
X0110545Y0227714D01*
X0109718Y0228108D01*
X0108818Y0228275D01*
X0108695Y0228265D01*
X0108438Y0228887D01*
X0107877Y0229618D01*
X0099343Y0238152D01*
X0098611Y0238713D01*
X0098444Y0238782D01*
X009815Y0239873D01*
X0098454Y024027D01*
X0124081D01*
X0124272Y0239808D01*
X0122626Y0238161D01*
X0122065Y023743D01*
X0121712Y0236579D01*
X0121592Y0235665D01*
Y0228229D01*
X0121439Y0228228D01*
X0120533Y0228101D01*
X011969Y0227744D01*
X0118968Y0227181D01*
X0118417Y022645D01*
X0118074Y0225602D01*
X0117962Y0224693D01*
X0117986Y022174D01*
X0118113Y0220834D01*
X0118471Y0219991D01*
X0119034Y021927D01*
X0119764Y0218718D01*
X0120613Y0218375D01*
X0121521Y0218263D01*
X0128805Y0218323D01*
X0129711Y021845D01*
X0130554Y0218807D01*
X0131275Y021937D01*
X0131827Y0220101D01*
X013217Y022095D01*
X0132282Y0221858D01*
X0132258Y0224811D01*
X0132131Y0225717D01*
X0131773Y022656D01*
X013121Y0227282D01*
X013048Y0227833D01*
X0129631Y0228176D01*
X0128723Y0228288D01*
X0128652Y0228358D01*
Y0234203D01*
X0134719Y024027D01*
X0192535D01*
X0207913Y0224892D01*
D02*
G37*
G36*
X0187305Y0208984D02*
X0186909Y0208567D01*
X0186582Y0208175D01*
X0186322Y0207809D01*
X018613Y0207469D01*
X0186006Y0207154D01*
X018595Y0206864D01*
X0185962Y02066D01*
X0186042Y0206361D01*
X018619Y0206148D01*
X0186405Y020596D01*
X0181423Y0209456D01*
X018168Y0209313D01*
X0181957Y020923D01*
X0182252Y0209209D01*
X0182566Y0209248D01*
X0182899Y0209349D01*
X0183251Y0209511D01*
X0183622Y0209734D01*
X0184012Y0210017D01*
X018442Y0210363D01*
X0184847Y0210769D01*
X0187305Y0208984D01*
D02*
G37*
G36*
X0231229Y0247934D02*
X0230572Y0247165D01*
X0229598Y0245575D01*
X0228885Y0243853D01*
X022845Y0242041D01*
X0228303Y0240182D01*
X022845Y0238324D01*
X0228885Y0236512D01*
X0229598Y0234789D01*
X0230572Y02332D01*
X0231783Y0231783D01*
X02332Y0230572D01*
X0234789Y0229598D01*
X0236512Y0228885D01*
X0238324Y022845D01*
X0240182Y0228303D01*
X0242041Y022845D01*
X0243853Y0228885D01*
X0245575Y0229598D01*
X0247165Y0230572D01*
X0247934Y0231229D01*
X0248388Y0231019D01*
Y0208816D01*
X0247888Y0208646D01*
X0247696Y0208896D01*
X0233196Y0223396D01*
X0232465Y0223957D01*
X0231614Y022431D01*
X02307Y022443D01*
X021836D01*
X0196494Y0246296D01*
X0195763Y0246857D01*
X0194912Y024721D01*
X0193998Y024733D01*
X0133257D01*
X0133257Y024733D01*
X0133257Y024733D01*
X00647D01*
X0063786Y024721D01*
X0062935Y0246857D01*
X0062204Y0246296D01*
X0055804Y0239896D01*
X0055243Y0239165D01*
X005489Y0238314D01*
X00548Y023763D01*
X00453D01*
X0044386Y023751D01*
X0043535Y0237157D01*
X0042804Y0236596D01*
X0013004Y0206796D01*
X0012443Y0206065D01*
X001209Y0205214D01*
X001197Y02043D01*
Y0189062D01*
X0004304Y0181396D01*
X0004131Y0181171D01*
X0003631Y018134D01*
Y0231019D01*
X0004085Y0231229D01*
X0004854Y0230572D01*
X0006443Y0229598D01*
X0008165Y0228885D01*
X0009978Y022845D01*
X0011836Y0228303D01*
X0013694Y022845D01*
X0015507Y0228885D01*
X0017229Y0229598D01*
X0018818Y0230572D01*
X0020236Y0231783D01*
X0021446Y02332D01*
X002242Y0234789D01*
X0023134Y0236512D01*
X0023569Y0238324D01*
X0023715Y0240182D01*
X0023569Y0242041D01*
X0023134Y0243853D01*
X002242Y0245575D01*
X0021446Y0247165D01*
X002079Y0247934D01*
X0020999Y0248388D01*
X0231019D01*
X0231229Y0247934D01*
D02*
G37*
G36*
X006597Y0210861D02*
X0066369Y0210525D01*
X0066751Y021025D01*
X0067114Y0210035D01*
X0067459Y020988D01*
X0067787Y0209786D01*
X0068096Y0209752D01*
X0068388Y0209778D01*
X0068662Y0209864D01*
X0068918Y0210011D01*
X0063973Y020647D01*
X0064187Y020666D01*
X0064333Y0206875D01*
X0064412Y0207114D01*
X0064424Y0207379D01*
X0064369Y0207668D01*
X0064246Y0207982D01*
X0064056Y0208321D01*
X0063798Y0208684D01*
X0063473Y0209073D01*
X0063081Y0209487D01*
X0065553Y0211257D01*
X006597Y0210861D01*
D02*
G37*
G36*
X0017Y01876D02*
X0014Y0180979D01*
X0013979Y0181527D01*
X0013915Y0181974D01*
X0013809Y0182318D01*
X0013661Y0182559D01*
X001347Y0182698D01*
X0013236Y0182735D01*
X0012961Y0182669D01*
X0012642Y0182501D01*
X0012282Y018223D01*
X0011879Y0181857D01*
Y01861D01*
X0012282Y0186533D01*
X0012642Y0186984D01*
X0012961Y0187452D01*
X0013236Y0187938D01*
X001347Y0188441D01*
X0013661Y0188962D01*
X0013809Y01895D01*
X0013915Y0190057D01*
X0013979Y019063D01*
X0014Y0191221D01*
X0017Y01876D01*
D02*
G37*
G36*
X02467Y01663D02*
X02437Y0162679D01*
X0243679Y016327D01*
X0243615Y0163844D01*
X0243509Y01644D01*
X0243361Y0164938D01*
X024317Y0165459D01*
X0242936Y0165962D01*
X0242661Y0166448D01*
X0242342Y0166916D01*
X0241982Y0167367D01*
X0241579Y01678D01*
Y0172043D01*
X0241982Y017167D01*
X0242342Y0171399D01*
X0242661Y0171231D01*
X0242936Y0171165D01*
X024317Y0171202D01*
X0243361Y0171341D01*
X0243509Y0171582D01*
X0243615Y0171926D01*
X0243679Y0172372D01*
X02437Y0172921D01*
X02467Y01663D01*
D02*
G37*
G36*
X0220177Y0160319D02*
X0216879Y0160403D01*
X0216928Y0160425D01*
X0216971Y0160493D01*
X021701Y0160608D01*
X0217043Y016077D01*
X0217072Y0160978D01*
X0217113Y0161534D01*
X0217136Y0162716D01*
X0220136D01*
X0220177Y0160319D01*
D02*
G37*
G36*
X0028761Y0162557D02*
X0029182Y01622D01*
X0029567Y016192D01*
X0029917Y0161718D01*
X0030232Y0161594D01*
X0030512Y0161548D01*
X0030756Y0161579D01*
X0030965Y0161687D01*
X0031139Y0161874D01*
X0031277Y0162138D01*
X0028859Y0156081D01*
X0028951Y0156391D01*
X0028988Y0156714D01*
X0028967Y0157051D01*
X0028891Y0157402D01*
X0028759Y0157767D01*
X002857Y0158146D01*
X0028325Y0158539D01*
X0028024Y0158946D01*
X0027666Y0159367D01*
X0027252Y0159801D01*
X0028305Y0162991D01*
X0028761Y0162557D01*
D02*
G37*
G36*
X002407Y0133551D02*
X0024065Y0133719D01*
X0024013Y0133868D01*
X0023914Y0134D01*
X0023769Y0134115D01*
X0023577Y0134211D01*
X0023338Y0134291D01*
X0023054Y0134352D01*
X0022722Y0134396D01*
X0022344Y0134423D01*
X0021919Y0134431D01*
Y0137431D01*
X0022403Y013744D01*
X0023223Y013751D01*
X002356Y0137572D01*
X0023847Y0137651D01*
X0024086Y0137747D01*
X0024275Y0137861D01*
X0024416Y0137993D01*
X0024507Y0138142D01*
X0024549Y0138309D01*
X002407Y0133551D01*
D02*
G37*
G36*
X0225673Y0135895D02*
X0225743Y0135641D01*
X0225883Y0135416D01*
X0226094Y0135221D01*
X0226376Y0135056D01*
X0226728Y0134921D01*
X0227151Y0134816D01*
X0227645Y0134741D01*
X0228209Y0134696D01*
X0228844Y0134681D01*
X0229002Y0131681D01*
X0228366Y0131678D01*
X0225693Y0131524D01*
X0225439Y0131476D01*
X0225239Y0131421D01*
X0225093Y013136D01*
X0225674Y013618D01*
X0225673Y0135895D01*
D02*
G37*
G36*
X0018952Y0130843D02*
X0018549Y0130423D01*
X0017872Y0129609D01*
X0017597Y0129215D01*
X0017365Y0128829D01*
X0017176Y0128452D01*
X001703Y0128084D01*
X0016926Y0127724D01*
X0016865Y0127373D01*
X0016847Y012703D01*
X0012118Y012996D01*
X0012467Y0129984D01*
X0012824Y0130051D01*
X0013189Y0130159D01*
X0013562Y013031D01*
X0013942Y0130503D01*
X0014331Y0130738D01*
X0014728Y0131015D01*
X0015132Y0131334D01*
X0015965Y0132098D01*
X0018952Y0130843D01*
D02*
G37*
G36*
X0229431Y0119107D02*
X022889Y0118546D01*
X0228012Y0117499D01*
X0227674Y0117013D01*
X0227403Y0116552D01*
X0227199Y0116117D01*
X0227063Y0115706D01*
X0226994Y0115321D01*
X0226992Y0114961D01*
X0227058Y0114626D01*
X0225063Y0121093D01*
X0225192Y0120821D01*
X0225379Y0120649D01*
X0225624Y0120577D01*
X0225927Y0120606D01*
X0226289Y0120736D01*
X0226708Y0120965D01*
X0227186Y0121295D01*
X0227723Y0121726D01*
X0228317Y0122257D01*
X022897Y0122889D01*
X0229431Y0119107D01*
D02*
G37*
G36*
X001692Y0121754D02*
X0016986Y0121394D01*
X0017095Y0121027D01*
X0017246Y0120652D01*
X0017439Y0120269D01*
X0017673Y0119879D01*
X001795Y0119481D01*
X0018269Y0119076D01*
X0019034Y0118243D01*
X0016054Y011698D01*
X0015634Y0117383D01*
X0014818Y011806D01*
X0014423Y0118335D01*
X0014036Y0118567D01*
X0013657Y0118756D01*
X0013286Y0118902D01*
X0012924Y0119006D01*
X001257Y0119066D01*
X0012224Y0119084D01*
X0016895Y0122106D01*
X001692Y0121754D01*
D02*
G37*
G36*
X0025691Y0112564D02*
X002563Y0112849D01*
X0025512Y0113104D01*
X0025338Y0113329D01*
X0025106Y0113524D01*
X0024817Y0113688D01*
X0024471Y0113823D01*
X0024069Y0113928D01*
X0023609Y0114003D01*
X0023092Y0114048D01*
X0022518Y0114063D01*
X0022196Y0117063D01*
X0022767Y0117078D01*
X0023274Y0117123D01*
X0023718Y0117198D01*
X0024098Y0117303D01*
X0024415Y0117438D01*
X0024669Y0117604D01*
X0024859Y0117799D01*
X0024985Y0118024D01*
X0025048Y0118279D01*
X0025048Y0118564D01*
X0025691Y0112564D01*
D02*
G37*
G36*
X0029854Y0092874D02*
X0029736Y0093159D01*
X0029566Y0093413D01*
X0029346Y0093638D01*
X0029073Y0093832D01*
X002875Y0093997D01*
X0028375Y0094131D01*
X0027948Y0094236D01*
X0027471Y0094311D01*
X0026941Y0094356D01*
X0026361Y0094371D01*
X0025398Y0097371D01*
X0025976Y0097386D01*
X0026484Y0097431D01*
X0026921Y0097506D01*
X0027288Y0097611D01*
X0027584Y0097746D01*
X0027809Y009791D01*
X0027964Y0098105D01*
X0028047Y009833D01*
X0028061Y0098585D01*
X0028004Y009887D01*
X0029854Y0092874D01*
D02*
G37*
G36*
X0222134Y0096403D02*
X0222098Y0096079D01*
X0222119Y0095741D01*
X0222196Y0095389D01*
X0222329Y0095024D01*
X0222519Y0094644D01*
X0222764Y0094251D01*
X0223066Y0093843D01*
X0223424Y0093421D01*
X0223839Y0092986D01*
X02228Y0089782D01*
X0222342Y0090219D01*
X022192Y0090577D01*
X0221534Y0090858D01*
X0221183Y009106D01*
X0220867Y0091185D01*
X0220587Y0091232D01*
X0220343Y0091201D01*
X0220134Y0091092D01*
X0219961Y0090906D01*
X0219823Y0090641D01*
X0222226Y0096713D01*
X0222134Y0096403D01*
D02*
G37*
G36*
X0240521Y0079303D02*
X0240118Y007887D01*
X0239758Y007842D01*
X0239439Y0077951D01*
X0239164Y0077466D01*
X023893Y0076962D01*
X0238739Y0076441D01*
X0238591Y0075903D01*
X0238485Y0075347D01*
X0238421Y0074773D01*
X02384Y0074182D01*
X02354D01*
X0235379Y0074773D01*
X0235315Y0075347D01*
X0235209Y0075903D01*
X0235061Y0076441D01*
X023487Y0076962D01*
X0234636Y0077466D01*
X0234361Y0077951D01*
X0234042Y007842D01*
X0233682Y007887D01*
X0233279Y0079303D01*
X0234779Y0082046D01*
X0235203Y0081664D01*
X0235627Y0081367D01*
X0236052Y0081155D01*
X0236476Y0081028D01*
X02369Y0080985D01*
X0237324Y0081028D01*
X0237749Y0081155D01*
X0238173Y0081367D01*
X0238597Y0081664D01*
X0239021Y0082046D01*
X0240521Y0079303D01*
D02*
G37*
G36*
X0068723Y0042867D02*
X0068468Y0043014D01*
X0068196Y0043102D01*
X0067905Y0043129D01*
X0067597Y0043096D01*
X006727Y0043002D01*
X0066925Y0042848D01*
X0066562Y0042634D01*
X0066181Y0042359D01*
X0065782Y0042023D01*
X0065365Y0041628D01*
X0062907Y0043412D01*
X00633Y0043826D01*
X0063625Y0044214D01*
X0063883Y0044579D01*
X0064073Y0044918D01*
X0064197Y0045233D01*
X0064253Y0045523D01*
X0064242Y0045788D01*
X0064164Y0046028D01*
X0064019Y0046244D01*
X0063806Y0046435D01*
X0068723Y0042867D01*
D02*
G37*
G36*
X0188043Y0046244D02*
X0187898Y0046027D01*
X0187821Y0045787D01*
X018781Y0045521D01*
X0187867Y0045231D01*
X018799Y0044916D01*
X0188181Y0044576D01*
X0188439Y0044212D01*
X0188765Y0043823D01*
X0189157Y004341D01*
X0186704Y004162D01*
X0186287Y0042016D01*
X0185888Y0042351D01*
X0185507Y0042626D01*
X0185144Y004284D01*
X01848Y0042994D01*
X0184473Y0043088D01*
X0184165Y0043121D01*
X0183875Y0043093D01*
X0183603Y0043005D01*
X0183349Y0042857D01*
X0188255Y0046435D01*
X0188043Y0046244D01*
D02*
G37*
G36*
X0128726Y0025401D02*
X0128471Y002531D01*
X0128246Y0025159D01*
X0128051Y0024948D01*
X0127886Y0024677D01*
X0127751Y0024346D01*
X0127646Y0023954D01*
X0127571Y0023502D01*
X0127526Y002299D01*
X0127511Y0022418D01*
X0124511Y0022414D01*
X0124496Y0022986D01*
X0124451Y0023498D01*
X0124376Y002395D01*
X0124271Y0024342D01*
X0124136Y0024673D01*
X0123971Y0024944D01*
X0123776Y0025154D01*
X0123551Y0025305D01*
X0123296Y0025395D01*
X0123011Y0025425D01*
X0129011Y0025431D01*
X0128726Y0025401D01*
D02*
G37*
G36*
X0248388Y0083687D02*
Y0020999D01*
X0247934Y002079D01*
X0247165Y0021446D01*
X0245575Y002242D01*
X0243853Y0023134D01*
X0242041Y0023569D01*
X0240182Y0023715D01*
X0238324Y0023569D01*
X0236512Y0023134D01*
X0234789Y002242D01*
X02332Y0021446D01*
X0231783Y0020236D01*
X0230572Y0018818D01*
X0229598Y0017229D01*
X0228885Y0015507D01*
X022845Y0013694D01*
X0228303Y0011836D01*
X022845Y0009978D01*
X0228885Y0008165D01*
X0229598Y0006443D01*
X0230572Y0004854D01*
X0231229Y0004085D01*
X0231019Y0003631D01*
X0183103D01*
X0183003Y0004131D01*
X0183228Y0004224D01*
X0183959Y0004785D01*
X0199596Y0020422D01*
X0239396Y0060222D01*
X0239957Y0060953D01*
X024031Y0061804D01*
X024043Y0062718D01*
Y0076341D01*
X0247696Y0083607D01*
X0247888Y0083857D01*
X0248388Y0083687D01*
D02*
G37*
G36*
X0198621Y0028991D02*
X0198685Y0028544D01*
X0198791Y0028201D01*
X0198939Y0027959D01*
X019913Y002782D01*
X0199364Y0027783D01*
X0199639Y0027849D01*
X0199958Y0028017D01*
X0200318Y0028288D01*
X0200721Y0028661D01*
X0198161Y0021858D01*
X0196039Y0019736D01*
X0193479Y0021418D01*
X0193882Y0021851D01*
X0194242Y0022302D01*
X0194561Y002277D01*
X0194836Y0023256D01*
X019507Y0023759D01*
X0195261Y002428D01*
X0195409Y0024819D01*
X0195515Y0025375D01*
X0195579Y0025948D01*
X01956Y002654D01*
X01986Y002954D01*
X0198621Y0028991D01*
D02*
G37*
G36*
X0063007Y0017706D02*
X0063068Y0017273D01*
X006317Y0016887D01*
X0063312Y001655D01*
X0063495Y0016259D01*
X0063719Y0016017D01*
X0063984Y0015821D01*
X0064289Y0015674D01*
X0064635Y0015574D01*
X0065021Y0015522D01*
X0059857Y0011604D01*
X0059881Y0011774D01*
X0059903Y0012034D01*
X0059966Y0013962D01*
X0059987Y0017312D01*
X0062986Y0018187D01*
X0063007Y0017706D01*
D02*
G37*
G36*
X0068576Y0013688D02*
X0068967Y0013357D01*
X0069363Y0013065D01*
X0069767Y0012812D01*
X0070176Y0012599D01*
X0070592Y0012424D01*
X0071014Y0012287D01*
X0071442Y001219D01*
X0071876Y0012132D01*
X0072317Y0012112D01*
Y0009112D01*
X0071876Y0009093D01*
X0071442Y0009035D01*
X0071014Y0008937D01*
X0070592Y0008801D01*
X0070176Y0008626D01*
X0069767Y0008412D01*
X0069363Y0008159D01*
X0068967Y0007868D01*
X0068576Y0007537D01*
X0068191Y0007168D01*
Y0014057D01*
X0068576Y0013688D01*
D02*
G37*
%LPC*%
G36*
X0156012Y0238525D02*
X0154474Y0234495D01*
X0154338Y0234165D01*
X0146312Y022614D01*
X0143707Y0226696D01*
X0142795Y0226769D01*
X0141894Y0226603D01*
X0141068Y022621D01*
X0140371Y0225616D01*
X0139852Y0224862D01*
X0139546Y0224D01*
X0138929Y0221112D01*
X0138856Y0220199D01*
X0139022Y0219299D01*
X0139415Y0218473D01*
X0140009Y0217776D01*
X0140763Y0217257D01*
X0141625Y021695D01*
X0148748Y0215429D01*
X0149661Y0215356D01*
X0150561Y0215522D01*
X0151387Y0215916D01*
X0152084Y0216509D01*
X0152603Y0217263D01*
X015291Y0218126D01*
X0153526Y0221013D01*
X0153599Y0221926D01*
X0153433Y0222826D01*
X0153288Y0223131D01*
X0158424Y0228266D01*
X0159441Y0227878D01*
X0160329Y0230204D01*
X0160784Y0230797D01*
X0161137Y0231648D01*
X0161257Y0232562D01*
Y0232635D01*
X0162552Y0236029D01*
X0156012Y0238525D01*
D02*
G37*
G36*
X0090278Y0238719D02*
X008352Y0236894D01*
X0084507Y0233243D01*
Y0220808D01*
X0081434Y0219476D01*
X0080649Y0219005D01*
X0080012Y0218347D01*
X0079567Y0217547D01*
X0079345Y0216659D01*
X007936Y0215744D01*
X0079611Y0214864D01*
X0080786Y0212155D01*
X0081257Y0211369D01*
X0081914Y0210733D01*
X0082714Y0210288D01*
X0083602Y0210066D01*
X0084518Y0210081D01*
X0085398Y0210332D01*
X009208Y0213229D01*
X0092865Y02137D01*
X0093502Y0214358D01*
X0093946Y0215158D01*
X0094169Y0216046D01*
X0094154Y0216961D01*
X0093903Y0217841D01*
X0092728Y022055D01*
X0092257Y0221335D01*
X00916Y0221972D01*
X0091567Y022199D01*
Y023003D01*
X0092554Y0230297D01*
X0091477Y0234283D01*
X0091447Y0234509D01*
X0091357Y0234726D01*
X0090278Y0238719D01*
D02*
G37*
G36*
X0163393Y0235708D02*
X0161855Y0231678D01*
X0161697Y0231298D01*
X0161691Y0231248D01*
X0160282Y0227557D01*
X0161577Y0227063D01*
Y021994D01*
X0160351Y0217295D01*
X0160078Y0216421D01*
X016004Y0215507D01*
X0160241Y0214614D01*
X0160665Y0213803D01*
X0161285Y0213129D01*
X0162058Y0212639D01*
X0168667Y0209577D01*
X016954Y0209303D01*
X0170455Y0209266D01*
X0171348Y0209466D01*
X0172159Y0209891D01*
X0172832Y0210511D01*
X0173322Y0211284D01*
X0174564Y0213963D01*
X0174837Y0214836D01*
X0174875Y0215751D01*
X0174675Y0216644D01*
X017425Y0217455D01*
X017363Y0218128D01*
X0172857Y0218618D01*
X0168638Y0220574D01*
Y0229818D01*
X0169933Y0233212D01*
X0163393Y0235708D01*
D02*
G37*
G36*
X013979Y0213039D02*
X0138874Y0212675D01*
X0138168Y0211989D01*
X0137778Y0211084D01*
X0137574Y0210129D01*
X0143116Y0208945D01*
X0143847Y0212369D01*
X0140775Y0213026D01*
X013979Y0213039D01*
D02*
G37*
G36*
X0144825Y021216D02*
X0144094Y0208736D01*
X0149636Y0207553D01*
X014984Y0208508D01*
X0149853Y0209493D01*
X0149489Y0210408D01*
X0148802Y0211115D01*
X0147898Y0211504D01*
X0144825Y021216D01*
D02*
G37*
G36*
X009463Y0209748D02*
X0093667Y020954D01*
X0090784Y020829D01*
X0092177Y0205078D01*
X0097376Y0207332D01*
X0096988Y0208228D01*
X0096427Y0209038D01*
X0095599Y0209572D01*
X009463Y0209748D01*
D02*
G37*
G36*
X0089867Y0207892D02*
X0086984Y0206643D01*
X0086174Y0206082D01*
X008564Y0205254D01*
X0085464Y0204285D01*
X0085672Y0203322D01*
X008606Y0202426D01*
X0091259Y020468D01*
X0089867Y0207892D01*
D02*
G37*
G36*
X0097774Y0206414D02*
X0092575Y020416D01*
X0093967Y0200948D01*
X009685Y0202198D01*
X009766Y0202758D01*
X0098194Y0203586D01*
X009837Y0204556D01*
X0098162Y0205519D01*
X0097774Y0206414D01*
D02*
G37*
G36*
X0091657Y0203763D02*
X0086458Y0201509D01*
X0086847Y0200613D01*
X0087407Y0199803D01*
X0088235Y0199269D01*
X0089204Y0199093D01*
X0090167Y0199301D01*
X009305Y020055D01*
X0091657Y0203763D01*
D02*
G37*
G36*
X0216922Y0201799D02*
X0214236Y0199989D01*
X0203696D01*
X0202782Y0199869D01*
X0201931Y0199516D01*
X02012Y0198955D01*
X0199552Y0197307D01*
X0198977Y0197799D01*
X0198151Y0198194D01*
X0197251Y0198361D01*
X0196339Y019829D01*
X0195476Y0197985D01*
X0194721Y0197468D01*
X0192525Y0195493D01*
X019193Y0194798D01*
X0191535Y0193972D01*
X0191368Y0193072D01*
X0191439Y0192159D01*
X0191744Y0191296D01*
X0192262Y0190542D01*
X0197131Y0185125D01*
X0197827Y018453D01*
X0198653Y0184135D01*
X0199553Y0183968D01*
X0200465Y0184039D01*
X0201328Y0184344D01*
X0202083Y0184862D01*
X0204279Y0186836D01*
X0204874Y0187532D01*
X0205269Y0188357D01*
X0205436Y0189257D01*
X0205365Y019017D01*
X020506Y0191033D01*
X0204542Y0191788D01*
X0204294Y0192064D01*
X0205158Y0192928D01*
X0212378D01*
X0213598Y0191119D01*
X0216924Y0193359D01*
X0217025Y0193401D01*
X0217305Y0193616D01*
X0220833Y0195993D01*
X0216922Y0201799D01*
D02*
G37*
G36*
X0111512Y0215557D02*
X01106Y0215485D01*
X0103476Y0213969D01*
X0102613Y0213663D01*
X0101858Y0213145D01*
X0101264Y0212449D01*
X010087Y0211622D01*
X0100704Y0210722D01*
X0100776Y020981D01*
X010139Y0206922D01*
X0101696Y0206059D01*
X0102214Y0205305D01*
X0102911Y020471D01*
X0103737Y0204316D01*
X0104637Y020415D01*
X0105342Y0204205D01*
X0105419Y020371D01*
X0105203Y020366D01*
X0100169Y0202133D01*
X0095245Y0200279D01*
X0090454Y0198108D01*
X0085814Y0195629D01*
X0082932Y0193836D01*
X0082626Y0194235D01*
X0082644Y0194251D01*
X0083127Y0195028D01*
X0083393Y0195904D01*
X0083424Y0196819D01*
X0083216Y019771D01*
X0082785Y0198518D01*
X0081066Y0200919D01*
X008044Y0201587D01*
X0079663Y020207D01*
X0078787Y0202337D01*
X0077873Y0202367D01*
X0076981Y0202159D01*
X0076174Y0201728D01*
X0070252Y0197488D01*
X0069583Y0196863D01*
X00691Y0196086D01*
X0068834Y019521D01*
X0068803Y0194295D01*
X0068808Y0194275D01*
X0065759Y0191226D01*
X0064943Y0191305D01*
X006404Y0191154D01*
X0063207Y0190775D01*
X00625Y0190193D01*
X005753Y018487D01*
X0056998Y0184125D01*
X0056677Y0183268D01*
X0056588Y0182357D01*
X0056739Y0181454D01*
X0057118Y0180621D01*
X00577Y0179914D01*
X0059858Y0177899D01*
X0060603Y0177367D01*
X006146Y0177046D01*
X0062371Y0176957D01*
X0063274Y0177108D01*
X0063409Y0177169D01*
X0063722Y0176762D01*
X0062232Y0174947D01*
X0059168Y0170671D01*
X005639Y0166204D01*
X005391Y0161565D01*
X0051739Y0156773D01*
X0050946Y0154667D01*
X0050463Y0154803D01*
X0050624Y0155647D01*
X0050556Y0156559D01*
X0050255Y0157424D01*
X004974Y015818D01*
X0049046Y0158778D01*
X0048222Y0159176D01*
X0045418Y0160101D01*
X0044519Y0160273D01*
X0043606Y0160205D01*
X0042742Y0159903D01*
X0041985Y0159388D01*
X0041387Y0158695D01*
X0040989Y0157871D01*
X0038706Y0150954D01*
X0038535Y0150055D01*
X0038603Y0149142D01*
X0038905Y0148278D01*
X003942Y0147521D01*
X0040113Y0146924D01*
X0040937Y0146526D01*
X004105Y0146489D01*
Y014209D01*
X0040679Y0141754D01*
X0039446Y0141878D01*
X0038531Y014185D01*
X0037655Y0141586D01*
X0036876Y0141105D01*
X0036249Y0140438D01*
X0035816Y0139631D01*
X0035607Y0138741D01*
X0034877Y0131494D01*
X0034905Y0130579D01*
X0035169Y0129702D01*
X0035651Y0128924D01*
X0036318Y0128297D01*
X0037124Y0127864D01*
X0038015Y0127654D01*
X0040953Y0127358D01*
X0041868Y0127386D01*
X0042745Y012765D01*
X0043523Y0128132D01*
X004415Y0128799D01*
X0044583Y0129605D01*
X0044793Y0130496D01*
X0045209Y0134635D01*
X0045699Y0135125D01*
X0046151Y0134911D01*
X0045792Y0131267D01*
X004562Y0126009D01*
X0045792Y0120752D01*
X0046308Y0115516D01*
X0047164Y0110326D01*
X0048359Y0105203D01*
X0047881Y0105062D01*
X0047603Y0105651D01*
X0047011Y0106349D01*
X0046258Y010687D01*
X0045397Y0107179D01*
X0044484Y0107254D01*
X0043584Y010709D01*
X0040772Y0106188D01*
X0039945Y0105797D01*
X0039246Y0105204D01*
X0038725Y0104452D01*
X0038417Y010359D01*
X0038342Y0102678D01*
X0038505Y0101777D01*
X0040731Y0094842D01*
X0040832Y0094629D01*
Y0090747D01*
X0040953Y0089833D01*
X0041306Y0088982D01*
X0041866Y008825D01*
X0045037Y008508D01*
X0045337Y0084342D01*
X0048938Y0078012D01*
X0049491Y0077282D01*
X0050214Y007672D01*
X0051057Y0076364D01*
X0051964Y0076239D01*
X0052872Y0076353D01*
X005372Y0076698D01*
X0056286Y0078158D01*
X0057016Y007871D01*
X0057578Y0079433D01*
X0057934Y0080276D01*
X0058059Y0081183D01*
X0057945Y0082091D01*
X0057622Y0082887D01*
X0058069Y0083115D01*
X0059168Y0081347D01*
X0062232Y0077071D01*
X0065569Y0073005D01*
X0069165Y0069165D01*
X0073005Y0065569D01*
X00742Y0064588D01*
X0074027Y0064083D01*
X0073388Y0064066D01*
X007251Y0063806D01*
X007173Y0063327D01*
X00711Y0062663D01*
X0069366Y0060273D01*
X0068929Y0059469D01*
X0068716Y0058579D01*
X0068741Y0057664D01*
X0069001Y0056786D01*
X006948Y0056006D01*
X0070144Y0055376D01*
X0076038Y0051098D01*
X0076843Y0050661D01*
X0077733Y0050448D01*
X0077844Y0050451D01*
X0082559Y0045736D01*
X008329Y0045175D01*
X0084141Y0044822D01*
X0085055Y0044702D01*
X0086819D01*
X0092418Y0042197D01*
X0093295Y0041935D01*
X009421Y0041909D01*
X00951Y0042121D01*
X0095905Y0042556D01*
X0096571Y0043185D01*
X009705Y0043965D01*
X0098256Y004666D01*
X0098518Y0047537D01*
X0098544Y0048452D01*
X0098332Y0049343D01*
X0097897Y0050148D01*
X009781Y005024D01*
X0098094Y0050667D01*
X0100169Y0049886D01*
X0105203Y0048359D01*
X0110326Y0047164D01*
X0115516Y0046308D01*
X0119851Y0045881D01*
X0119989Y00454D01*
X0119882Y0045318D01*
X0119326Y0044591D01*
X0118976Y0043745D01*
X0118858Y0042837D01*
X0118861Y0039885D01*
X0118982Y0038977D01*
X0119333Y0038132D01*
X0119891Y0037407D01*
X0120618Y003685D01*
X0121464Y0036501D01*
X0122372Y0036382D01*
X0129655Y0036391D01*
X0130563Y0036511D01*
X0131408Y0036863D01*
X0132133Y0037421D01*
X0132454Y0037839D01*
X0138686D01*
X0138751Y0037784D01*
X0139578Y0037393D01*
X0140479Y0037229D01*
X0141391Y0037304D01*
X014851Y0038844D01*
X0149372Y0039152D01*
X0150125Y0039673D01*
X0150717Y0040372D01*
X0151108Y0041199D01*
X0151271Y00421D01*
X0151196Y0043012D01*
X0150572Y0045898D01*
X0150264Y004676D01*
X0149743Y0047512D01*
X0149045Y0048104D01*
X0148518Y0048353D01*
X0148558Y0048887D01*
X015185Y0049886D01*
X01563Y0051561D01*
X0156492Y0051099D01*
X015607Y0050907D01*
X015527Y0050332D01*
X0154751Y0049494D01*
X0154592Y0048522D01*
X0154817Y0047563D01*
X0155221Y0046674D01*
X0160834Y0049228D01*
X0166447Y0051781D01*
X0166043Y005267D01*
X0165468Y005347D01*
X0164631Y0053989D01*
X0163658Y0054148D01*
X0162699Y0053923D01*
X0162359Y0053768D01*
X0162138Y0054216D01*
X0166204Y005639D01*
X0168539Y0057842D01*
X0168965Y0057518D01*
X0168768Y005685D01*
X0168746Y0055935D01*
X0168961Y0055045D01*
X0169399Y0054242D01*
X0171139Y0051856D01*
X0171771Y0051193D01*
X0172552Y0050716D01*
X017343Y0050458D01*
X0174345Y0050435D01*
X0175235Y0050651D01*
X0176038Y0051089D01*
X0181923Y005538D01*
X0182586Y0056012D01*
X0183063Y0056793D01*
X0183321Y0057671D01*
X0183344Y0058586D01*
X0183153Y0059376D01*
X0186018Y0062241D01*
X0186352Y0061941D01*
X0187106Y0061422D01*
X0187969Y0061116D01*
X0188881Y0061044D01*
X0189781Y006121D01*
X0190607Y0061604D01*
X0191304Y0062198D01*
X019618Y0067608D01*
X0196699Y0068362D01*
X0197005Y0069225D01*
X0197077Y0070138D01*
X0196911Y0071038D01*
X0196517Y0071864D01*
X0195923Y0072561D01*
X0193729Y0074537D01*
X0192975Y0075056D01*
X0192113Y0075362D01*
X01912Y0075434D01*
X01903Y0075268D01*
X0189474Y0074874D01*
X0188777Y007428D01*
X0186446Y0071693D01*
X018611Y0071649D01*
X0185709Y0071483D01*
X0185418Y0071904D01*
X0186449Y0073005D01*
X0189787Y0077071D01*
X0192851Y0081347D01*
X0193616Y0082577D01*
X0194071Y0082362D01*
X0193796Y0081551D01*
X0193861Y0080568D01*
X0194297Y0079685D01*
X0195038Y0079036D01*
X0195884Y0078548D01*
X0198964Y0083891D01*
X0202044Y0089233D01*
X0201198Y0089721D01*
X0200265Y0090037D01*
X0199282Y0089972D01*
X0198399Y0089535D01*
X0197848Y0088907D01*
X0197434Y0089193D01*
X0198108Y0090454D01*
X0200279Y0095245D01*
X0200316Y0095343D01*
X0200816Y0095338D01*
X020084Y009527D01*
X0201359Y0094516D01*
X0202055Y0093922D01*
X0202882Y0093528D01*
X020569Y0092617D01*
X020659Y0092451D01*
X0207503Y0092523D01*
X0208366Y0092829D01*
X020912Y0093348D01*
X0209714Y0094044D01*
X0210107Y0094871D01*
X0212355Y0101799D01*
X0212521Y0102699D01*
X0212449Y0103611D01*
X0212143Y0104474D01*
X0211624Y0105228D01*
X0210928Y0105822D01*
X0210101Y0106216D01*
X0210094Y0106218D01*
Y0109932D01*
X0210465Y0110267D01*
X021206Y0110106D01*
X0212975Y0110133D01*
X0213852Y0110396D01*
X0214631Y0110877D01*
X0215258Y0111544D01*
X0215692Y0112349D01*
X0215903Y011324D01*
X0216637Y0120487D01*
X021661Y0121402D01*
X0216347Y0122278D01*
X0215865Y0123057D01*
X0215199Y0123685D01*
X0214393Y0124118D01*
X0213502Y0124329D01*
X0210565Y0124627D01*
X020965Y0124599D01*
X0208773Y0124336D01*
X0207994Y0123855D01*
X0207367Y0123189D01*
X0206933Y0122383D01*
X0206756Y0121632D01*
X0206258Y0121699D01*
X0206399Y0126009D01*
X0206291Y0129317D01*
X0206785Y0129505D01*
X0207109Y0129115D01*
X0207981Y0128657D01*
X0208962Y0128567D01*
X0209933Y0128669D01*
X0209286Y0134802D01*
X020864Y0140935D01*
X0207669Y0140832D01*
X0206728Y014054D01*
X0205971Y0139909D01*
X0205731Y0139453D01*
X020521Y0139537D01*
X0204854Y0141692D01*
X020429Y0144113D01*
X0204715Y0144491D01*
X0205203Y0144316D01*
X0206116Y0144239D01*
X0207016Y0144401D01*
X0209829Y0145299D01*
X0210657Y0145689D01*
X0211356Y014628D01*
X0211879Y0147032D01*
X0212189Y0147893D01*
X0212265Y0148805D01*
X0212103Y0149706D01*
X0209887Y0156645D01*
X0209779Y0156875D01*
Y0162575D01*
X0209658Y0163489D01*
X0209306Y016434D01*
X0208745Y0165071D01*
X0207089Y0166726D01*
X0206815Y016741D01*
X020324Y0173756D01*
X0202691Y0174488D01*
X020197Y0175053D01*
X0201129Y0175412D01*
X0200222Y0175541D01*
X0199314Y0175431D01*
X0198464Y017509D01*
X0195892Y0173641D01*
X0195159Y0173091D01*
X0194595Y0172371D01*
X0194235Y0171529D01*
X0194106Y0170623D01*
X0194216Y0169714D01*
X0194557Y0168865D01*
X0194121Y0168629D01*
X0192851Y0170671D01*
X0189787Y0174947D01*
X0188916Y0176008D01*
X0189199Y0176452D01*
X0189929Y0176266D01*
X0190904Y0176406D01*
X0191751Y0176909D01*
X0192477Y0177562D01*
X0188355Y0182148D01*
X0184232Y0186734D01*
X0183506Y0186081D01*
X0182916Y0185292D01*
X0182673Y0184337D01*
X0182778Y0183609D01*
X0182308Y0183364D01*
X0179014Y0186449D01*
X0178368Y0186979D01*
X0178481Y0187534D01*
X0178958Y0187675D01*
X0179738Y0188154D01*
X0180368Y0188818D01*
X0182104Y0191207D01*
X018254Y0192011D01*
X0182754Y0192901D01*
X018273Y0193816D01*
X018247Y0194694D01*
X0181991Y0195474D01*
X0181327Y0196104D01*
X0175434Y0200384D01*
X017463Y0200821D01*
X017374Y0201035D01*
X0172825Y0201011D01*
X0171947Y0200751D01*
X0171167Y0200272D01*
X0171108Y020021D01*
X0170608Y0200204D01*
X0168945Y0201867D01*
X0169087Y0202173D01*
X016936Y0203046D01*
X0169398Y0203961D01*
X0169198Y0204854D01*
X0168773Y0205665D01*
X0168153Y0206339D01*
X016738Y0206828D01*
X0160772Y0209891D01*
X0159898Y0210164D01*
X0158984Y0210202D01*
X015809Y0210002D01*
X0157279Y0209577D01*
X0156606Y0208957D01*
X0156116Y0208184D01*
X0154875Y0205505D01*
X0154601Y0204631D01*
X0154564Y0203717D01*
X0154764Y0202823D01*
X0155188Y0202013D01*
X0155808Y0201339D01*
X0156439Y0200939D01*
X0156215Y0200489D01*
X015185Y0202133D01*
X0147801Y0203361D01*
X0147778Y020389D01*
X0148127Y0204029D01*
X0148833Y0204715D01*
X0149223Y020562D01*
X0149427Y0206575D01*
X0143396Y0207863D01*
X0137365Y0209151D01*
X0137162Y0208196D01*
X0137148Y0207211D01*
X0137512Y0206296D01*
X0137795Y0206004D01*
X0137551Y0205538D01*
X0136502Y0205711D01*
X0131845Y020617D01*
X0131615Y0206695D01*
X0131922Y0207101D01*
X0132265Y020795D01*
X0132377Y0208858D01*
X0132353Y0211811D01*
X0132226Y0212718D01*
X0131869Y021356D01*
X0131306Y0214282D01*
X0130575Y0214833D01*
X0129726Y0215176D01*
X0128818Y0215288D01*
X0121535Y0215229D01*
X0120628Y0215102D01*
X0119785Y0214744D01*
X0119064Y0214181D01*
X0118781Y0213806D01*
X0114344D01*
X0113935Y0214402D01*
X0113238Y0214996D01*
X0112412Y021539D01*
X0111512Y0215557D01*
D02*
G37*
G36*
X0035565Y0200507D02*
X0031247Y0194998D01*
X0034332Y019258D01*
X0034343Y0192565D01*
X0034694Y0192296D01*
X0038113Y0189616D01*
X0039615Y0191531D01*
X0046827D01*
X0047094Y0191237D01*
X0047245Y0190334D01*
X0047624Y0189501D01*
X0048206Y0188794D01*
X0050364Y0186779D01*
X0051109Y0186247D01*
X0051966Y0185926D01*
X0052877Y0185838D01*
X005378Y0185988D01*
X0054613Y0186367D01*
X005532Y0186949D01*
X006029Y0192273D01*
X0060822Y0193018D01*
X0061143Y0193875D01*
X0061232Y0194786D01*
X0061081Y0195689D01*
X0060702Y0196522D01*
X006012Y0197229D01*
X0057962Y0199244D01*
X0057217Y0199776D01*
X005636Y0200097D01*
X0055449Y0200185D01*
X0054546Y0200035D01*
X0053713Y0199656D01*
X0053006Y0199074D01*
X0052507Y019854D01*
X0052113Y0198591D01*
X0038009D01*
X0035565Y0200507D01*
D02*
G37*
G36*
X0187524Y0188699D02*
X0186549Y0188558D01*
X0185702Y0188055D01*
X0184976Y0187402D01*
X0188764Y0183188D01*
X0191368Y0185529D01*
X0189267Y0187865D01*
X0188478Y0188455D01*
X0187524Y0188699D01*
D02*
G37*
G36*
X0221336Y0195247D02*
X021801Y0193006D01*
X0217909Y0192964D01*
X0217629Y0192749D01*
X0214101Y0190372D01*
X0216144Y018734D01*
Y0183625D01*
X0213661Y0181142D01*
X0213303Y0181422D01*
X0212461Y0181782D01*
X0211555Y0181911D01*
X0210646Y0181801D01*
X0209797Y018146D01*
X0207224Y018001D01*
X0206492Y0179461D01*
X0205927Y0178741D01*
X0205568Y0177899D01*
X0205439Y0176993D01*
X0205549Y0176084D01*
X020589Y0175235D01*
X0209465Y0168889D01*
X0210014Y0168157D01*
X0210734Y0167592D01*
X0211576Y0167232D01*
X0212482Y0167103D01*
X0213391Y0167213D01*
X0214241Y0167554D01*
X0216813Y0169004D01*
X0217545Y0169553D01*
X021811Y0170273D01*
X0218469Y0171115D01*
X0218599Y0172021D01*
X0218489Y017293D01*
X0218147Y017378D01*
X0217476Y0174972D01*
X022217Y0179666D01*
X0222731Y0180397D01*
X0223084Y0181249D01*
X0223204Y0182162D01*
Y0188065D01*
X0225247Y0189442D01*
X0221336Y0195247D01*
D02*
G37*
G36*
X0192036Y0184785D02*
X0189433Y0182445D01*
X0193221Y0178231D01*
X0193947Y0178883D01*
X0194537Y0179672D01*
X0194781Y0180627D01*
X019464Y0181602D01*
X0194137Y0182449D01*
X0192036Y0184785D01*
D02*
G37*
G36*
X0053248Y0175689D02*
X0052264Y0175633D01*
X0051377Y0175204D01*
X0050721Y0174469D01*
X0049128Y0171761D01*
X0052146Y0169986D01*
X0055019Y017487D01*
X0054178Y0175365D01*
X0053248Y0175689D01*
D02*
G37*
G36*
X0030691Y0194289D02*
X0026373Y018878D01*
X0028435Y0187164D01*
Y0181014D01*
X0028556Y01801D01*
X0028908Y0179249D01*
X0029469Y0178518D01*
X0034507Y017348D01*
X0034611Y0172633D01*
X0034955Y0171785D01*
X0035506Y0171054D01*
X0036228Y0170491D01*
X0038773Y0168994D01*
X0039615Y0168636D01*
X0040522Y0168509D01*
X004143Y0168622D01*
X0042279Y0168965D01*
X004301Y0169516D01*
X0043573Y0170238D01*
X0047266Y0176515D01*
X0047623Y0177358D01*
X004775Y0178265D01*
X0047638Y0179173D01*
X0047295Y0180022D01*
X0046743Y0180752D01*
X0046022Y0181316D01*
X0043477Y0182813D01*
X0042634Y018317D01*
X0041728Y0183297D01*
X0040819Y0183185D01*
X003997Y0182842D01*
X003924Y018229D01*
X0038677Y0181569D01*
X0038042Y0180489D01*
X0037546Y0180426D01*
X0035496Y0182476D01*
Y0186276D01*
X0037558Y0188907D01*
X0034473Y0191325D01*
X0034462Y019134D01*
X0034111Y019161D01*
X0030691Y0194289D01*
D02*
G37*
G36*
X0055881Y0174363D02*
X0053008Y0169478D01*
X0056026Y0167703D01*
X0057619Y0170411D01*
X0057943Y0171341D01*
X0057887Y0172325D01*
X0057458Y0173212D01*
X0056723Y0173867D01*
X0055881Y0174363D01*
D02*
G37*
G36*
X0048621Y0170899D02*
X0047028Y0168191D01*
X0046704Y0167261D01*
X004676Y0166277D01*
X0047189Y016539D01*
X0047924Y0164735D01*
X0048766Y016424D01*
X0051639Y0169124D01*
X0048621Y0170899D01*
D02*
G37*
G36*
X0052501Y0168617D02*
X0049627Y0163733D01*
X0050469Y0163237D01*
X0051399Y0162913D01*
X0052383Y016297D01*
X005327Y0163398D01*
X0053926Y0164133D01*
X0055519Y0166841D01*
X0052501Y0168617D01*
D02*
G37*
G36*
X0210605Y0141142D02*
X0209634Y0141039D01*
X0210228Y0135404D01*
X021371Y0135771D01*
X0213381Y0138896D01*
X0213088Y0139836D01*
X0212458Y0140594D01*
X0211586Y0141052D01*
X0210605Y0141142D01*
D02*
G37*
G36*
X0213815Y0134777D02*
X0210333Y0134409D01*
X0210928Y0128774D01*
X0211899Y0128877D01*
X021284Y0129169D01*
X0213597Y0129799D01*
X0214055Y0130671D01*
X0214145Y0131652D01*
X0213815Y0134777D01*
D02*
G37*
G36*
X0042066Y0123225D02*
X0041095Y0123121D01*
X0041699Y0117487D01*
X004518Y011786D01*
X0044845Y0120984D01*
X0044551Y0121924D01*
X004392Y012268D01*
X0043047Y0123137D01*
X0042066Y0123225D01*
D02*
G37*
G36*
X00401Y0123015D02*
X003913Y0122911D01*
X0038189Y0122617D01*
X0037433Y0121985D01*
X0036976Y0121113D01*
X0036888Y0120131D01*
X0037223Y0117007D01*
X0040704Y011738D01*
X00401Y0123015D01*
D02*
G37*
G36*
X0045287Y0116866D02*
X0041805Y0116493D01*
X0042409Y0110858D01*
X004338Y0110962D01*
X004432Y0111257D01*
X0045076Y0111888D01*
X0045533Y0112761D01*
X0045621Y0113742D01*
X0045287Y0116866D01*
D02*
G37*
G36*
X0040811Y0116386D02*
X003733Y0116013D01*
X0037664Y0112889D01*
X0037958Y0111949D01*
X003859Y0111193D01*
X0039463Y0110736D01*
X0040444Y0110648D01*
X0041415Y0110752D01*
X0040811Y0116386D01*
D02*
G37*
G36*
X0202911Y0088734D02*
X020008Y0083824D01*
X0203114Y0082076D01*
X0204683Y0084797D01*
X0204999Y008573D01*
X0204934Y0086713D01*
X0204498Y0087597D01*
X0203756Y0088246D01*
X0202911Y0088734D01*
D02*
G37*
G36*
X0199581Y0082958D02*
X019675Y0078049D01*
X0197596Y0077561D01*
X019853Y0077245D01*
X0199513Y007731D01*
X0200396Y0077746D01*
X0201045Y0078487D01*
X0202614Y0081209D01*
X0199581Y0082958D01*
D02*
G37*
G36*
X0061134Y0075592D02*
X0060158Y0075456D01*
X0059309Y0074957D01*
X005858Y0074308D01*
X0062349Y0070076D01*
X0064963Y0072405D01*
X0062874Y0074751D01*
X0062088Y0075345D01*
X0061134Y0075592D01*
D02*
G37*
G36*
X0039668Y0084625D02*
X003876Y0084511D01*
X0037912Y0084166D01*
X0035346Y0082706D01*
X0034616Y0082154D01*
X0034054Y0081431D01*
X0033698Y0080588D01*
X0033573Y0079681D01*
X0033687Y0078773D01*
X0034032Y0077925D01*
X0034699Y0076751D01*
X0030245Y0072298D01*
X0029684Y0071566D01*
X0029332Y0070715D01*
X0029211Y0069801D01*
Y0065154D01*
X0027171Y0063797D01*
X0031049Y0057969D01*
X0034396Y0060196D01*
X0034507Y0060242D01*
X0034779Y0060451D01*
X0038312Y0062802D01*
X0036272Y0065868D01*
Y0068339D01*
X0038529Y0070597D01*
X0038908Y0070302D01*
X0039751Y0069947D01*
X0040658Y0069821D01*
X0041567Y0069935D01*
X0042414Y007028D01*
X0044981Y007174D01*
X0045711Y0072293D01*
X0046273Y0073015D01*
X0046628Y0073859D01*
X0046753Y0074765D01*
X004664Y0075674D01*
X0046295Y0076521D01*
X0042694Y0082852D01*
X0042141Y0083582D01*
X0041418Y0084144D01*
X0040575Y00845D01*
X0039668Y0084625D01*
D02*
G37*
G36*
X0057833Y0073643D02*
X0057104Y0072993D01*
X005651Y0072207D01*
X0056262Y0071254D01*
X0056398Y0070278D01*
X0056898Y0069429D01*
X0058987Y0067083D01*
X0061602Y0069411D01*
X0057833Y0073643D01*
D02*
G37*
G36*
X0065628Y0071658D02*
X0063014Y0069329D01*
X0066782Y0065097D01*
X0067511Y0065747D01*
X0068105Y0066533D01*
X0068353Y0067486D01*
X0068217Y0068462D01*
X0067718Y0069311D01*
X0065628Y0071658D01*
D02*
G37*
G36*
X0062267Y0068664D02*
X0059652Y0066336D01*
X0061741Y006399D01*
X0062528Y0063396D01*
X0063481Y0063148D01*
X0064457Y0063284D01*
X0065306Y0063783D01*
X0066035Y0064432D01*
X0062267Y0068664D01*
D02*
G37*
G36*
X0051475Y0067935D02*
X0050562Y0067869D01*
X0049697Y0067568D01*
X004894Y0067053D01*
X0046735Y006509D01*
X0046137Y0064397D01*
X0045738Y0063573D01*
X0045566Y0062674D01*
X0045633Y0061761D01*
X0045934Y0060896D01*
X0046071Y0060694D01*
X0045837Y0060252D01*
X0040009D01*
X0038811Y0062052D01*
X0035463Y0059825D01*
X0035353Y0059779D01*
X0035081Y0059571D01*
X0031547Y005722D01*
X0035425Y0051392D01*
X003813Y0053192D01*
X004858D01*
X0049494Y0053312D01*
X0050345Y0053665D01*
X0051076Y0054226D01*
X0051431Y005458D01*
X0051985Y0054102D01*
X0052809Y0053703D01*
X0053708Y0053531D01*
X0054621Y0053598D01*
X0055485Y0053899D01*
X0056243Y0054413D01*
X0058448Y0056377D01*
X0059046Y005707D01*
X0059445Y0057894D01*
X0059616Y0058793D01*
X005955Y0059706D01*
X0059249Y006057D01*
X0058734Y0061327D01*
X0053891Y0066767D01*
X0053198Y0067365D01*
X0052374Y0067764D01*
X0051475Y0067935D01*
D02*
G37*
G36*
X0211192Y0084536D02*
X0210284Y0084416D01*
X0209439Y0084066D01*
X0208713Y0083508D01*
X0208156Y0082781D01*
X0204518Y0076471D01*
X0204168Y0075625D01*
X0204049Y0074718D01*
X020417Y007381D01*
X020452Y0072965D01*
X0205078Y0072239D01*
X0205805Y0071682D01*
X0208363Y0070208D01*
X0209208Y0069858D01*
X0210116Y0069739D01*
X0211023Y0069859D01*
X0211869Y007021D01*
X0212276Y0070523D01*
X021706Y0065739D01*
Y0064318D01*
X0214998Y0061718D01*
X0218076Y0059276D01*
X0218094Y0059253D01*
X0218437Y005899D01*
X0221832Y0056296D01*
X0226183Y006178D01*
X022412Y0063416D01*
Y0067201D01*
X0224Y0068115D01*
X0223647Y0068966D01*
X0223086Y0069697D01*
X0216128Y0076656D01*
X021679Y0077804D01*
X0217139Y007865D01*
X0217258Y0079557D01*
X0217138Y0080465D01*
X0216787Y008131D01*
X021623Y0082036D01*
X0215503Y0082593D01*
X0212945Y0084068D01*
X0212099Y0084417D01*
X0211192Y0084536D01*
D02*
G37*
G36*
X0200849Y0066722D02*
X0199949Y0066556D01*
X0199122Y0066162D01*
X0198426Y0065568D01*
X019355Y0060158D01*
X0193031Y0059404D01*
X0192725Y0058541D01*
X0192653Y0057628D01*
X0192819Y0056728D01*
X0193213Y0055902D01*
X0193807Y0055206D01*
X0196001Y0053229D01*
X0196755Y005271D01*
X0197617Y0052404D01*
X019853Y0052332D01*
X019943Y0052498D01*
X0200256Y0052892D01*
X0200837Y0053387D01*
X020116Y0053064D01*
X0201891Y0052503D01*
X0202742Y005215D01*
X0203656Y005203D01*
X0214499D01*
X0216923Y0050107D01*
X0221273Y0055591D01*
X0218194Y0058034D01*
X0218177Y0058056D01*
X0217834Y005832D01*
X0214438Y0061013D01*
X0212913Y0059091D01*
X02065D01*
X0206267Y0059533D01*
X0206348Y005965D01*
X0206653Y0060513D01*
X0206726Y0061426D01*
X0206559Y0062326D01*
X0206166Y0063152D01*
X0205572Y0063848D01*
X0203378Y0065825D01*
X0202624Y0066344D01*
X0201761Y006665D01*
X0200849Y0066722D01*
D02*
G37*
G36*
X0166861Y0050871D02*
X0161703Y0048524D01*
X0163153Y0045337D01*
X0166013Y0046638D01*
X0166813Y0047213D01*
X0167332Y0048051D01*
X0167491Y0049023D01*
X0167266Y0049982D01*
X0166861Y0050871D01*
D02*
G37*
G36*
X0104198Y0047644D02*
X0103282Y0047282D01*
X0102573Y0046598D01*
X0102181Y0045694D01*
X0101974Y004474D01*
X0107511Y0043539D01*
X0108254Y0046961D01*
X0105183Y0047627D01*
X0104198Y0047644D01*
D02*
G37*
G36*
X0160793Y004811D02*
X0155635Y0045764D01*
X0156039Y0044875D01*
X0156614Y0044075D01*
X0157452Y0043556D01*
X0158424Y0043397D01*
X0159383Y0043622D01*
X0162243Y0044923D01*
X0160793Y004811D01*
D02*
G37*
G36*
X0109231Y0046749D02*
X0108489Y0043327D01*
X0114027Y0042126D01*
X0114234Y004308D01*
X0114251Y0044065D01*
X0113889Y0044982D01*
X0113205Y004569D01*
X0112301Y0046083D01*
X0109231Y0046749D01*
D02*
G37*
G36*
X0101762Y0043763D02*
X0101555Y0042809D01*
X0101538Y0041824D01*
X0101899Y0040907D01*
X0102584Y0040199D01*
X0103487Y0039806D01*
X0106557Y003914D01*
X01073Y0042562D01*
X0101762Y0043763D01*
D02*
G37*
G36*
X0108277Y004235D02*
X0107535Y0038928D01*
X0110605Y0038262D01*
X011159Y0038245D01*
X0112507Y0038607D01*
X0113215Y0039291D01*
X0113608Y0040194D01*
X0113815Y0041149D01*
X0108277Y004235D01*
D02*
G37*
G36*
X0082727Y0042694D02*
X0081836Y0042482D01*
X0081031Y0042047D01*
X0080366Y0041418D01*
X0079886Y0040639D01*
X007868Y0037944D01*
X0078418Y0037067D01*
X0078393Y0036151D01*
X0078605Y0035261D01*
X007904Y0034456D01*
X0079669Y0033791D01*
X0080448Y0033311D01*
X0084114Y003167D01*
Y0019362D01*
X0082866Y0015923D01*
X0089446Y0013535D01*
X0090908Y0017562D01*
X0091054Y0017916D01*
X009154Y0017833D01*
Y0016666D01*
X0090292Y0013228D01*
X0096872Y0010839D01*
X0098334Y0014867D01*
X009848Y001522D01*
X0098491Y0015299D01*
X0099849Y001904D01*
X0099603Y0019129D01*
X0099495Y0019618D01*
X010504Y0025163D01*
X010763Y0024601D01*
X0108542Y0024525D01*
X0109443Y0024688D01*
X0110271Y0025079D01*
X0110969Y0025671D01*
X0111491Y0026423D01*
X01118Y0027284D01*
X0112426Y003017D01*
X0112501Y0031082D01*
X0112338Y0031983D01*
X0111948Y0032811D01*
X0111356Y0033509D01*
X0110604Y0034031D01*
X0109742Y003434D01*
X0102624Y0035884D01*
X0101712Y0035959D01*
X0100811Y0035796D01*
X0099984Y0035406D01*
X0099285Y0034814D01*
X0098763Y0034062D01*
X0098454Y00332D01*
X0097828Y0030315D01*
X0097753Y0029403D01*
X0097916Y0028502D01*
X0098069Y0028177D01*
X0092574Y0022682D01*
X0092013Y0021951D01*
X0091989Y0021893D01*
X0091175Y0022189D01*
Y0031254D01*
X0091249Y0031324D01*
X0091729Y0032104D01*
X0092935Y0034799D01*
X0093197Y0035676D01*
X0093223Y0036591D01*
X0093011Y0037481D01*
X0092575Y0038287D01*
X0091947Y0038952D01*
X0091167Y0039432D01*
X0084519Y0042407D01*
X0083642Y0042669D01*
X0082727Y0042694D01*
D02*
G37*
G36*
X0169455Y0043276D02*
X016854Y0043245D01*
X0167665Y0042978D01*
X0161035Y0039962D01*
X0160258Y0039478D01*
X0159634Y0038809D01*
X0159203Y0038001D01*
X0158997Y0037109D01*
X0159028Y0036194D01*
X0159295Y0035319D01*
X0160518Y0032631D01*
X0161002Y0031854D01*
X0161261Y0031613D01*
Y0023088D01*
X0160042Y0022659D01*
X0160114Y0022454D01*
X015968Y0022181D01*
X0153692Y0028169D01*
X0153844Y002849D01*
X0154007Y0029391D01*
X0153932Y0030303D01*
X0153308Y0033189D01*
X0153Y0034051D01*
X0152479Y0034803D01*
X015178Y0035395D01*
X0150953Y0035787D01*
X0150052Y003595D01*
X014914Y0035875D01*
X0142021Y0034336D01*
X0141159Y0034027D01*
X0140407Y0033506D01*
X0139815Y0032808D01*
X0139424Y003198D01*
X013926Y003108D01*
X0139335Y0030167D01*
X0139959Y0027281D01*
X0140268Y002642D01*
X0140789Y0025667D01*
X0141487Y0025075D01*
X0142314Y0024684D01*
X0143215Y002452D01*
X0144127Y0024595D01*
X014672Y0025156D01*
X0152997Y0018879D01*
X0153917Y0016266D01*
X0153929Y001617D01*
X0154069Y0015833D01*
X0155485Y0011807D01*
X0162088Y001413D01*
X0160869Y0017596D01*
Y0018647D01*
X0161369Y0018801D01*
X0161381Y0018791D01*
X0161521Y0018454D01*
X0162937Y0014429D01*
X0169541Y0016751D01*
X0168322Y0020217D01*
Y0032329D01*
X0171791Y0033907D01*
X0172568Y0034391D01*
X0173192Y003506D01*
X0173623Y0035868D01*
X0173829Y003676D01*
X0173798Y0037675D01*
X0173531Y003855D01*
X0172308Y0041238D01*
X0171824Y0042015D01*
X0171155Y0042639D01*
X0170347Y004307D01*
X0169455Y0043276D01*
D02*
G37*
G36*
X0031521Y004498D02*
X0029416Y0044814D01*
X0027362Y0044321D01*
X0025411Y0043513D01*
X002361Y004241D01*
X0022004Y0041038D01*
X0020633Y0039432D01*
X0019529Y0037631D01*
X0018721Y003568D01*
X0018228Y0033626D01*
X0018062Y0031521D01*
X0018228Y0029416D01*
X0018721Y0027362D01*
X0019529Y0025411D01*
X0020633Y002361D01*
X0022004Y0022004D01*
X002361Y0020633D01*
X0025411Y0019529D01*
X0027362Y0018721D01*
X0029416Y0018228D01*
X0031521Y0018062D01*
X0033626Y0018228D01*
X003568Y0018721D01*
X0037631Y0019529D01*
X0039432Y0020633D01*
X0041038Y0022004D01*
X004241Y002361D01*
X0043513Y0025411D01*
X0044321Y0027362D01*
X0044814Y0029416D01*
X004498Y0031521D01*
X0044814Y0033626D01*
X0044321Y003568D01*
X0043513Y0037631D01*
X004241Y0039432D01*
X0041038Y0041038D01*
X0039432Y004241D01*
X0037631Y0043513D01*
X003568Y0044321D01*
X0033626Y0044814D01*
X0031521Y004498D01*
D02*
G37*
G36*
X0050598Y0016534D02*
X0045177D01*
Y0011112D01*
X0050598D01*
Y0016534D01*
D02*
G37*
G36*
X0044177D02*
X0038756D01*
Y0011112D01*
X0044177D01*
Y0016534D01*
D02*
G37*
G36*
X0050598Y0010112D02*
X0045177D01*
Y0004691D01*
X0050598D01*
Y0010112D01*
D02*
G37*
G36*
X0044177D02*
X0038756D01*
Y0004691D01*
X0044177D01*
Y0010112D01*
D02*
G37*
%LPD*%
G36*
X0158279Y0230475D02*
X0158186Y0230481D01*
X0158059Y0230442D01*
X0157897Y0230357D01*
X01577Y0230227D01*
X0157468Y0230052D01*
X0156899Y0229566D01*
X0155783Y0228497D01*
X0153944Y0230901D01*
X0154358Y0231333D01*
X0155126Y0232244D01*
X0155479Y0232723D01*
X0156125Y0233729D01*
X0156418Y0234255D01*
X0156943Y0235354D01*
X0157175Y0235928D01*
X0158279Y0230475D01*
D02*
G37*
G36*
X0152579Y0225293D02*
X0152258Y0224951D01*
X0151984Y0224617D01*
X0151757Y022429D01*
X0151578Y022397D01*
X0151447Y0223657D01*
X0151363Y0223351D01*
X0151327Y0223053D01*
X0151338Y0222762D01*
X0151396Y0222478D01*
X0151503Y0222201D01*
X0145218Y0224286D01*
X0145542Y0224209D01*
X014588Y0224188D01*
X0146232Y0224223D01*
X0146598Y0224315D01*
X0146978Y0224463D01*
X0147373Y0224667D01*
X0147781Y0224927D01*
X0148203Y0225244D01*
X0148639Y0225617D01*
X0149089Y0226046D01*
X0152579Y0225293D01*
D02*
G37*
G36*
X0089548Y0223144D02*
X0089639Y0222271D01*
X0089718Y0221876D01*
X008982Y0221508D01*
X0089944Y0221167D01*
X0090091Y0220853D01*
X0090261Y0220566D01*
X0090453Y0220306D01*
X0090668Y0220074D01*
X0085042Y0218815D01*
X0085326Y0218912D01*
X008558Y0219068D01*
X0085804Y0219285D01*
X0085999Y0219561D01*
X0086163Y0219897D01*
X0086298Y0220293D01*
X0086402Y0220749D01*
X0086477Y0221265D01*
X0086522Y0221841D01*
X0086537Y0222476D01*
X0089537Y0223621D01*
X0089548Y0223144D01*
D02*
G37*
G36*
X0167197Y0231657D02*
X0166964Y0230806D01*
X016687Y0230348D01*
X0166724Y0229367D01*
X0166637Y0228298D01*
X0166607Y0227141D01*
X0163607Y0225441D01*
X01636Y0226014D01*
X0163491Y0227406D01*
X0163425Y0227761D01*
X0163345Y0228061D01*
X0163251Y0228308D01*
X0163141Y0228499D01*
X0163017Y0228636D01*
X0162879Y0228719D01*
X0167336Y0232049D01*
X0167197Y0231657D01*
D02*
G37*
G36*
X0166607Y0222278D02*
X0166622Y0221477D01*
X0166742Y0220162D01*
X0166847Y0219647D01*
X0166981Y0219229D01*
X0167146Y0218906D01*
X016734Y0218679D01*
X0167564Y0218548D01*
X0167818Y0218512D01*
X0168102Y0218572D01*
X0162193Y0216442D01*
X0162461Y0217051D01*
X0162914Y021826D01*
X0163098Y0218859D01*
X0163381Y022005D01*
X016348Y022064D01*
X0163593Y0221813D01*
X0163607Y0222394D01*
X0166607Y0222278D01*
D02*
G37*
G36*
X0203619Y019426D02*
X0203224Y0193844D01*
X0202892Y0193449D01*
X0202623Y0193074D01*
X0202416Y0192719D01*
X0202273Y0192384D01*
X0202191Y0192069D01*
X0202173Y0191775D01*
X0202217Y0191501D01*
X0202324Y0191247D01*
X0202493Y0191014D01*
X0198476Y0195482D01*
X0198688Y0195291D01*
X0198923Y0195165D01*
X019918Y0195104D01*
X019946Y0195108D01*
X0199762Y0195176D01*
X0200086Y019531D01*
X0200434Y0195509D01*
X0200803Y0195772D01*
X0201196Y0196101D01*
X020161Y0196494D01*
X0203619Y019426D01*
D02*
G37*
G36*
X0214142Y0193911D02*
X0213978Y019411D01*
X0213768Y0194288D01*
X0213512Y0194445D01*
X0213211Y0194582D01*
X0212863Y0194697D01*
X021247Y0194791D01*
X021203Y0194864D01*
X0211545Y0194917D01*
X0210437Y0194959D01*
X0211823Y0197959D01*
X0212409Y0197969D01*
X0213493Y0198053D01*
X0213992Y0198126D01*
X0214903Y0198336D01*
X0215315Y0198472D01*
X0215698Y0198629D01*
X0216052Y0198807D01*
X0216377Y0199006D01*
X0214142Y0193911D01*
D02*
G37*
G36*
X0112208Y0212983D02*
X0112338Y021273D01*
X0112539Y0212506D01*
X0112809Y0212313D01*
X0113149Y0212149D01*
X0113559Y0212014D01*
X0114039Y021191D01*
X0114589Y0211836D01*
X0115209Y0211791D01*
X0115899Y0211776D01*
X0116361Y0208776D01*
X0115891Y0208767D01*
X0115015Y0208693D01*
X0114609Y0208628D01*
X0114224Y0208545D01*
X0113859Y0208443D01*
X0113517Y0208323D01*
X0113195Y0208184D01*
X0112894Y0208027D01*
X0112615Y0207851D01*
X0112147Y0213267D01*
X0112208Y0212983D01*
D02*
G37*
G36*
X012086Y0207484D02*
X0120514Y020773D01*
X0120162Y0207949D01*
X0119803Y0208143D01*
X0119438Y0208311D01*
X0119066Y0208453D01*
X0118688Y0208569D01*
X0118304Y020866D01*
X0117912Y0208724D01*
X0117515Y0208763D01*
X0117111Y0208776D01*
X0117095Y0211776D01*
X011752Y0211788D01*
X0117934Y0211825D01*
X0118335Y0211886D01*
X0118725Y0211971D01*
X0119103Y0212081D01*
X0119469Y0212215D01*
X0119823Y0212373D01*
X0120166Y0212556D01*
X0120496Y0212764D01*
X0120814Y0212995D01*
X012086Y0207484D01*
D02*
G37*
G36*
X0166997Y0202657D02*
X0166895Y0202399D01*
X0166865Y0202112D01*
X0166905Y0201797D01*
X0167016Y0201454D01*
X0167197Y0201082D01*
X0167449Y0200682D01*
X0167772Y0200253D01*
X0168165Y0199797D01*
X0168629Y0199312D01*
X0166203Y0197494D01*
X0164043Y0199628D01*
X0167168Y0202888D01*
X0166997Y0202657D01*
D02*
G37*
G36*
X016941Y0198552D02*
X0169842Y0198184D01*
X0170237Y0197895D01*
X0170595Y0197686D01*
X0170916Y0197556D01*
X01712Y0197506D01*
X0171446Y0197535D01*
X0171656Y0197644D01*
X0171829Y0197833D01*
X0171965Y01981D01*
X0170491Y0194229D01*
X0170747Y0193778D01*
X0170871Y0193481D01*
X0170861Y0193338D01*
X0170717Y0193349D01*
X017044Y0193514D01*
X0170029Y0193832D01*
X0169485Y0194305D01*
X0167053Y0196646D01*
X0168941Y0199D01*
X016941Y0198552D01*
D02*
G37*
G36*
X0070478Y0188831D02*
X0070163Y01885D01*
X0069621Y0187834D01*
X0069395Y0187498D01*
X0069199Y0187161D01*
X0069032Y0186823D01*
X0068894Y0186482D01*
X0068787Y0186141D01*
X0068709Y0185797D01*
X006866Y0185452D01*
X0065012Y0189277D01*
X0065319Y0189266D01*
X0065631Y0189294D01*
X0065948Y0189361D01*
X0066269Y0189465D01*
X0066596Y0189608D01*
X0066927Y018979D01*
X0067264Y0190009D01*
X0067605Y0190267D01*
X0067952Y0190564D01*
X0068303Y0190898D01*
X0070478Y0188831D01*
D02*
G37*
G36*
X0074156Y0190766D02*
X0073819Y019076D01*
X0073482Y0190719D01*
X0073145Y0190644D01*
X0072808Y0190534D01*
X0072472Y0190389D01*
X0072136Y019021D01*
X0071799Y0189996D01*
X0071464Y0189747D01*
X0071128Y0189463D01*
X0070792Y0189145D01*
X0069008Y0191604D01*
X0069346Y0191956D01*
X0069919Y0192645D01*
X0070154Y0192981D01*
X0070354Y0193311D01*
X007052Y0193636D01*
X0070651Y0193955D01*
X0070747Y0194268D01*
X0070809Y0194576D01*
X0070836Y0194878D01*
X0074156Y0190766D01*
D02*
G37*
G36*
X0205219Y016597D02*
X0205288Y0165849D01*
X0205399Y0165694D01*
X0205549Y0165504D01*
X0206246Y0164726D01*
X0207309Y0163636D01*
X0205188Y0161514D01*
X0204742Y0161945D01*
X0203944Y0162624D01*
X0203592Y0162873D01*
X0203271Y016306D01*
X0202981Y0163188D01*
X0202722Y0163254D01*
X0202493Y016326D01*
X0202296Y0163205D01*
X020213Y0163089D01*
X020519Y0166056D01*
X0205219Y016597D01*
D02*
G37*
G36*
X0207748Y0159425D02*
X020775Y0158858D01*
X0207915Y015614D01*
X0207954Y0156027D01*
X0203254Y0156059D01*
X0203538Y0156092D01*
X0203792Y0156195D01*
X0204016Y0156369D01*
X020421Y0156613D01*
X0204375Y0156928D01*
X0204509Y0157312D01*
X0204614Y0157767D01*
X0204689Y0158293D01*
X0204733Y0158888D01*
X0204748Y0159554D01*
X0207748Y0159425D01*
D02*
G37*
G36*
X0046212Y0148373D02*
X0046184Y0148225D01*
X004616Y0148025D01*
X0046106Y0147103D01*
X004608Y0145129D01*
X004308Y0144956D01*
X0043065Y0145622D01*
X004302Y0146219D01*
X0042945Y0146745D01*
X004284Y0147201D01*
X0042706Y0147586D01*
X0042541Y0147902D01*
X0042347Y0148147D01*
X0042122Y0148322D01*
X0041868Y0148427D01*
X0041583Y0148462D01*
X0046243Y0148467D01*
X0046212Y0148373D01*
D02*
G37*
G36*
X0045384Y0137681D02*
X0043246Y0135519D01*
X0042772Y0139346D01*
X0042781Y0139347D01*
X0042803Y0139365D01*
X0042841Y0139397D01*
X0043378Y0139918D01*
X0043519Y0140059D01*
X0045384Y0137681D01*
D02*
G37*
G36*
X0209276Y0112447D02*
X0209237Y0112553D01*
X0209171Y0112616D01*
X0209076Y0112635D01*
X0208953Y0112611D01*
X0208802Y0112543D01*
X0208622Y0112433D01*
X0208415Y0112279D01*
X0208179Y0112081D01*
X0207624Y0111556D01*
X0206127Y0114302D01*
X0206571Y0114753D01*
X0207853Y0116217D01*
X0208051Y0116498D01*
X0208199Y0116744D01*
X0208297Y0116957D01*
X0208347Y0117135D01*
X0208347Y0117279D01*
X0209276Y0112447D01*
D02*
G37*
G36*
X0208079Y010708D02*
X0208124Y0106487D01*
X0208199Y0105963D01*
X0208304Y0105509D01*
X020844Y0105125D01*
X0208605Y0104812D01*
X0208801Y0104567D01*
X0209027Y0104393D01*
X0209283Y0104289D01*
X0209569Y0104254D01*
X0204806Y0104247D01*
X0204855Y0104379D01*
X0204899Y0104559D01*
X0204937Y0104786D01*
X0204999Y0105382D01*
X0205053Y0106632D01*
X0205063Y0107703D01*
X0208063Y0107744D01*
X0208079Y010708D01*
D02*
G37*
G36*
X0047358Y0095435D02*
X0047074Y0095402D01*
X0046819Y0095298D01*
X0046595Y0095124D01*
X0046401Y009488D01*
X0046236Y0094565D01*
X0046102Y0094181D01*
X0045997Y0093725D01*
X0045922Y00932D01*
X0045878Y0092604D01*
X0045863Y0091938D01*
X0042863Y0092074D01*
X0042861Y0092642D01*
X0042702Y0095353D01*
X0042664Y0095463D01*
X0047358Y0095435D01*
D02*
G37*
G36*
X0047412Y008984D02*
X0047853Y0089463D01*
X0048268Y0089153D01*
X0048656Y0088913D01*
X004902Y008874D01*
X0049357Y0088635D01*
X0049668Y0088599D01*
X0049953Y0088631D01*
X0050213Y0088731D01*
X0050447Y0088899D01*
X0046956Y0085703D01*
X0046926Y0085796D01*
X0046854Y0085923D01*
X0046741Y0086086D01*
X0046586Y0086283D01*
X0045873Y0087085D01*
X0044787Y0088201D01*
X0046946Y0090285D01*
X0047412Y008984D01*
D02*
G37*
G36*
X0186234Y0068966D02*
X0186138Y0068685D01*
X0185863Y00682D01*
X0185409Y0067511D01*
X0187069Y0064043D01*
X0186913Y006429D01*
X0186719Y0064457D01*
X0186488Y0064544D01*
X018622Y0064551D01*
X0185914Y0064478D01*
X0185571Y0064326D01*
X018519Y0064094D01*
X0184772Y0063782D01*
X0184317Y006339D01*
X0183824Y0062918D01*
X018188Y0065217D01*
X018304Y0066365D01*
X018615Y0069043D01*
X0186234Y0068966D01*
D02*
G37*
G36*
X0182724Y0061819D02*
X0182265Y0061338D01*
X0181876Y0060886D01*
X0181558Y0060463D01*
X0181311Y0060068D01*
X0181135Y0059702D01*
X0181029Y0059364D01*
X0180993Y0059054D01*
X0181029Y0058774D01*
X0181135Y0058521D01*
X0181312Y0058297D01*
X0177586Y0061977D01*
X0177868Y0062059D01*
X0178158Y006217D01*
X0178455Y0062309D01*
X0178761Y0062478D01*
X0179074Y0062675D01*
X0179724Y0063156D01*
X0180061Y006344D01*
X0180757Y0064094D01*
X0182724Y0061819D01*
D02*
G37*
G36*
X0081111Y0056006D02*
X0081005Y0055754D01*
X0080969Y0055473D01*
X0081004Y0055164D01*
X008111Y0054826D01*
X0081286Y0054461D01*
X0081533Y0054066D01*
X008185Y0053643D01*
X0082238Y0053192D01*
X0082696Y0052713D01*
X0080728Y0050438D01*
X0080374Y0050781D01*
X0079363Y0051636D01*
X0079043Y0051863D01*
X0078428Y0052228D01*
X0078134Y0052367D01*
X0077847Y0052476D01*
X0077569Y0052556D01*
X0081288Y005623D01*
X0081111Y0056006D01*
D02*
G37*
G36*
X013985Y003949D02*
X0139736Y0039562D01*
X0139572Y0039627D01*
X0139358Y0039683D01*
X0139094Y0039733D01*
X013878Y0039775D01*
X0138004Y0039835D01*
X0136466Y0039869D01*
X0135677Y0042869D01*
X0136325Y0042884D01*
X0136897Y0042929D01*
X0137394Y0043004D01*
X0137817Y0043109D01*
X0138164Y0043243D01*
X0138436Y0043407D01*
X0138633Y0043602D01*
X0138755Y0043826D01*
X0138801Y004408D01*
X0138773Y0044364D01*
X013985Y003949D01*
D02*
G37*
G36*
X0130719Y0043891D02*
X0131061Y0043676D01*
X0131413Y0043487D01*
X0131773Y0043323D01*
X0132143Y0043185D01*
X0132521Y0043071D01*
X0132908Y0042983D01*
X0133304Y004292D01*
X0133709Y0042882D01*
X0134123Y0042869D01*
X0134124Y0039869D01*
X0133708Y0039857D01*
X0133301Y0039819D01*
X0132903Y0039757D01*
X0132515Y0039669D01*
X0132137Y0039557D01*
X0131769Y0039419D01*
X013141Y0039257D01*
X0131061Y0039069D01*
X0130721Y0038857D01*
X0130391Y0038619D01*
X0130385Y004413D01*
X0130719Y0043891D01*
D02*
G37*
G36*
X0036209Y0197469D02*
X0036542Y0197279D01*
X0036907Y0197111D01*
X0037303Y0196965D01*
X003773Y0196842D01*
X0038189Y0196741D01*
X0038679Y0196662D01*
X0039753Y0196572D01*
X0040337Y0196561D01*
X0041649Y0193561D01*
X0041071Y019355D01*
X004004Y019346D01*
X0039589Y0193382D01*
X003918Y0193281D01*
X0038813Y0193158D01*
X0038489Y0193012D01*
X0038207Y0192844D01*
X0037968Y0192653D01*
X0037771Y019244D01*
X0035907Y0197682D01*
X0036209Y0197469D01*
D02*
G37*
G36*
X0049312Y0192054D02*
X0049547Y0192341D01*
X0049694Y0192597D01*
X004975Y0192823D01*
X0049717Y0193019D01*
X0049594Y0193185D01*
X0049382Y019332D01*
X004908Y0193426D01*
X0048688Y0193501D01*
X0048207Y0193546D01*
X0047635Y0193561D01*
X0049036Y0196561D01*
X0049829Y0196575D01*
X0051269Y0196685D01*
X0051916Y0196781D01*
X0052516Y0196905D01*
X0053067Y0197055D01*
X0053569Y0197234D01*
X0054023Y019744D01*
X0054429Y0197673D01*
X0054787Y0197934D01*
X0049312Y0192054D01*
D02*
G37*
G36*
X0222211Y0189792D02*
X0221993Y0189556D01*
X0221801Y0189276D01*
X0221635Y0188954D01*
X0221494Y0188589D01*
X0221379Y0188181D01*
X0221289Y0187731D01*
X0221225Y0187238D01*
X0221187Y0186702D01*
X0221174Y0186123D01*
X0218174Y0184927D01*
X0218161Y0185516D01*
X0218059Y0186628D01*
X0217969Y0187151D01*
X0217854Y0187652D01*
X0217713Y0188131D01*
X0217547Y0188588D01*
X0217354Y0189023D01*
X0217137Y0189437D01*
X0216894Y0189828D01*
X0222455Y0189986D01*
X0222211Y0189792D01*
D02*
G37*
G36*
X0217073Y017744D02*
X0216674Y017702D01*
X0216334Y0176617D01*
X0216052Y0176229D01*
X0215828Y0175856D01*
X0215662Y01755D01*
X0215555Y017516D01*
X0215505Y0174835D01*
X0215514Y0174526D01*
X021558Y0174233D01*
X0215705Y0173956D01*
X0212621Y0179354D01*
X0212789Y0179119D01*
X0212985Y0178954D01*
X0213208Y0178859D01*
X0213459Y0178833D01*
X0213738Y0178878D01*
X0214044Y0178993D01*
X0214377Y0179178D01*
X0214739Y0179433D01*
X0215127Y0179759D01*
X0215544Y0180154D01*
X0217073Y017744D01*
D02*
G37*
G36*
X0034733Y0188565D02*
X0034492Y0188228D01*
X0034277Y0187863D01*
X0034087Y018747D01*
X0033922Y018705D01*
X0033783Y0186602D01*
X0033669Y0186126D01*
X003358Y0185623D01*
X0033516Y0185092D01*
X0033466Y0183948D01*
X0030466Y0185129D01*
X0030453Y0185709D01*
X0030351Y0186748D01*
X0030263Y0187208D01*
X0030149Y0187627D01*
X0030009Y0188006D01*
X0029844Y0188346D01*
X0029654Y0188645D01*
X0029439Y0188904D01*
X0029198Y0189122D01*
X0034733Y0188565D01*
D02*
G37*
G36*
X0039572Y0072386D02*
X0039403Y0072621D01*
X0039206Y0072785D01*
X0038982Y007288D01*
X0038731Y0072905D01*
X0038452Y0072859D01*
X0038145Y0072744D01*
X0037812Y0072559D01*
X003745Y0072304D01*
X0037062Y0071979D01*
X0036645Y0071584D01*
X0035107Y0074288D01*
X0035505Y0074708D01*
X0035845Y0075111D01*
X0036127Y0075499D01*
X0036351Y007587D01*
X0036516Y0076226D01*
X0036623Y0076566D01*
X0036672Y007689D01*
X0036663Y0077199D01*
X0036595Y0077491D01*
X003647Y0077767D01*
X0039572Y0072386D01*
D02*
G37*
G36*
X0034254Y0067698D02*
X0034357Y0066584D01*
X0034447Y0066059D01*
X0034562Y0065556D01*
X0034703Y0065074D01*
X0034869Y0064614D01*
X0035061Y0064175D01*
X0035279Y0063758D01*
X0035523Y0063362D01*
X0029961Y0063236D01*
X0030204Y0063428D01*
X0030422Y0063663D01*
X0030614Y0063941D01*
X0030781Y0064262D01*
X0030921Y0064625D01*
X0031037Y0065032D01*
X0031126Y0065482D01*
X003119Y0065974D01*
X0031229Y006651D01*
X0031242Y0067088D01*
X0034242Y0068287D01*
X0034254Y0067698D01*
D02*
G37*
G36*
X0052317Y0056619D02*
X0052144Y0056773D01*
X0051951Y0056871D01*
X0051736Y0056915D01*
X00515Y0056902D01*
X0051243Y0056834D01*
X0050965Y005671D01*
X0050665Y0056532D01*
X0050345Y0056297D01*
X0050003Y0056007D01*
X0049641Y0055661D01*
X0047519Y0057783D01*
X0047889Y005817D01*
X0048203Y0058535D01*
X0048461Y0058879D01*
X0048663Y0059201D01*
X0048809Y0059502D01*
X0048899Y0059781D01*
X0048934Y0060038D01*
X0048912Y0060274D01*
X0048834Y0060488D01*
X00487Y006068D01*
X0052317Y0056619D01*
D02*
G37*
G36*
X0038412Y0059065D02*
X0038619Y0058888D01*
X0038873Y0058732D01*
X0039173Y0058597D01*
X003952Y0058482D01*
X0039912Y0058389D01*
X004035Y0058316D01*
X0040835Y0058264D01*
X0041943Y0058222D01*
X0040549Y0055222D01*
X0039964Y0055212D01*
X0038879Y0055128D01*
X0038379Y0055055D01*
X0037466Y0054847D01*
X0037053Y0054712D01*
X0036669Y0054556D01*
X0036312Y0054379D01*
X0035985Y0054181D01*
X003825Y0059263D01*
X0038412Y0059065D01*
D02*
G37*
G36*
X021423Y0077397D02*
X0214162Y0077106D01*
X0214152Y0076798D01*
X02142Y0076475D01*
X0214306Y0076136D01*
X0214471Y007578D01*
X0214694Y0075409D01*
X0214976Y0075022D01*
X0215315Y0074619D01*
X0215713Y0074199D01*
X0214162Y0071508D01*
X0213746Y0071903D01*
X0213357Y0072228D01*
X0212996Y0072483D01*
X0212662Y0072668D01*
X0212355Y0072784D01*
X0212076Y007283D01*
X0211824Y0072806D01*
X0211599Y0072712D01*
X0211401Y0072549D01*
X0211231Y0072315D01*
X0214357Y0077672D01*
X021423Y0077397D01*
D02*
G37*
G36*
X022209Y0065459D02*
X0222103Y0064879D01*
X0222204Y0063838D01*
X0222293Y0063378D01*
X0222407Y0062958D01*
X0222546Y0062577D01*
X022271Y0062237D01*
X02229Y0061936D01*
X0223116Y0061675D01*
X0223356Y0061454D01*
X0217824Y0062044D01*
X0218065Y0062377D01*
X021828Y0062739D01*
X021847Y0063128D01*
X0218634Y0063546D01*
X0218774Y0063991D01*
X0218888Y0064465D01*
X0218976Y0064966D01*
X021904Y0065496D01*
X021909Y006664D01*
X022209Y0065459D01*
D02*
G37*
G36*
X0203422Y0059235D02*
X0203349Y0059031D01*
X020333Y0058805D01*
X0203366Y0058558D01*
X0203455Y0058289D01*
X0203599Y0057999D01*
X0203797Y0057687D01*
X0204049Y0057353D01*
X0204356Y0056998D01*
X0204717Y0056621D01*
X0202595Y00545D01*
X020224Y0054839D01*
X0201906Y0055124D01*
X0201593Y0055355D01*
X0201301Y0055533D01*
X020103Y0055657D01*
X0200781Y0055727D01*
X0200552Y0055744D01*
X0200345Y0055707D01*
X0200159Y0055616D01*
X0199994Y0055471D01*
X020355Y0059417D01*
X0203422Y0059235D01*
D02*
G37*
G36*
X0216597Y0052934D02*
X0216297Y0053148D01*
X0215966Y0053339D01*
X0215603Y0053508D01*
X0215208Y0053655D01*
X0214782Y0053779D01*
X0214324Y005388D01*
X0213835Y0053959D01*
X0212761Y0054049D01*
X0212177Y005406D01*
X0210871Y005706D01*
X021145Y0057072D01*
X0212481Y0057162D01*
X0212933Y005724D01*
X0213344Y0057342D01*
X0213712Y0057466D01*
X0214038Y0057612D01*
X0214322Y0057781D01*
X0214564Y0057973D01*
X0214764Y0058187D01*
X0216597Y0052934D01*
D02*
G37*
G36*
X0089675Y0032604D02*
X0089574Y003248D01*
X0089484Y0032308D01*
X0089404Y0032088D01*
X0089335Y003182D01*
X0089277Y0031504D01*
X0089192Y0030728D01*
X008915Y002976D01*
X0089144Y0029204D01*
X0086144Y0029985D01*
X0086129Y0030628D01*
X0086085Y0031209D01*
X008601Y003173D01*
X0085905Y003219D01*
X0085771Y0032588D01*
X0085606Y0032926D01*
X0085412Y0033203D01*
X0085188Y0033419D01*
X0084933Y0033573D01*
X0084649Y0033667D01*
X0089675Y0032604D01*
D02*
G37*
G36*
X0106133Y0027014D02*
X0105809Y0027092D01*
X0105472Y0027114D01*
X010512Y0027079D01*
X0104754Y0026988D01*
X0104375Y0026841D01*
X0103981Y0026637D01*
X0103573Y0026377D01*
X0103151Y0026061D01*
X0102716Y0025688D01*
X0102266Y002526D01*
X0098783Y002602D01*
X0099103Y002636D01*
X0099376Y0026694D01*
X0099601Y0027021D01*
X0099778Y0027341D01*
X0099909Y0027654D01*
X0099991Y0027961D01*
X0100027Y0028261D01*
X0100015Y0028554D01*
X0099955Y0028841D01*
X0099849Y0029121D01*
X0106133Y0027014D01*
D02*
G37*
G36*
X0089151Y0023213D02*
X0089257Y0021824D01*
X008932Y0021472D01*
X0089397Y0021174D01*
X0089488Y0020931D01*
X0089593Y0020742D01*
X0089712Y0020609D01*
X0089845Y0020531D01*
X0085444Y0017128D01*
X0085577Y0017525D01*
X0085801Y0018382D01*
X0085892Y0018843D01*
X0086032Y0019829D01*
X0086116Y0020901D01*
X0086144Y0022058D01*
X0089144Y0023785D01*
X0089151Y0023213D01*
D02*
G37*
G36*
X0167502Y003423D02*
X0167248Y0034071D01*
X0167024Y0033853D01*
X016683Y0033574D01*
X0166665Y0033235D01*
X0166531Y0032835D01*
X0166426Y0032375D01*
X0166351Y0031855D01*
X0166306Y0031275D01*
X0166291Y0030634D01*
X0163291Y0029676D01*
X0163284Y0030214D01*
X0163176Y0031572D01*
X0163111Y003194D01*
X0163031Y0032265D01*
X0162937Y0032549D01*
X0162829Y0032789D01*
X0162706Y0032988D01*
X0162569Y0033144D01*
X0167786Y0034328D01*
X0167502Y003423D01*
D02*
G37*
G36*
X0151805Y0028831D02*
X0151745Y0028545D01*
X0151734Y0028252D01*
X0151769Y0027952D01*
X0151852Y0027646D01*
X0151983Y0027332D01*
X0152161Y0027012D01*
X0152386Y0026686D01*
X0152659Y0026352D01*
X0152979Y0026011D01*
X0149495Y0025252D01*
X0149045Y0025681D01*
X0148609Y0026054D01*
X0148187Y002637D01*
X0147779Y002663D01*
X0147386Y0026834D01*
X0147006Y0026981D01*
X014664Y0027073D01*
X0146288Y0027107D01*
X0145951Y0027086D01*
X0145627Y0027008D01*
X0151911Y002911D01*
X0151805Y0028831D01*
D02*
G37*
G36*
X0166291Y0022925D02*
X0166298Y0022336D01*
X0166462Y0020189D01*
X0166537Y0019706D01*
X0166729Y0018801D01*
X0166845Y0018381D01*
X0166975Y0017982D01*
X0162608Y0021429D01*
X0162738Y0021504D01*
X0162854Y0021635D01*
X0162956Y0021821D01*
X0163045Y0022062D01*
X016312Y0022359D01*
X0163182Y0022711D01*
X016323Y0023117D01*
X0163285Y0024096D01*
X0163291Y0024669D01*
X0166291Y0022925D01*
D02*
G37*
D16*
X0157339Y0017084D02*
D03*
X0164791Y0019705D02*
D03*
D17*
X0107894Y0042944D02*
D03*
X0105127Y0030242D02*
D03*
X0143501Y0208352D02*
D03*
X0146228Y0221063D02*
D03*
D18*
X0044363Y0099833D02*
D03*
X0031981Y0095871D02*
D03*
X0206248Y015166D02*
D03*
X0218636Y0155603D02*
D03*
D19*
X0040163Y0077223D02*
D03*
X0051469Y0083641D02*
D03*
D20*
X0062308Y006937D02*
D03*
X0052591Y0060733D02*
D03*
X0188726Y0182482D02*
D03*
X0198402Y0191165D02*
D03*
D21*
X004458Y0152851D02*
D03*
X0032239Y0156937D02*
D03*
X0206491Y0099872D02*
D03*
X0218853Y009585D02*
D03*
D22*
X0027266Y0135931D02*
D03*
X00402Y0134618D02*
D03*
X0224245Y0116043D02*
D03*
X0211313Y0117366D02*
D03*
D23*
X0041255Y0116937D02*
D03*
X0028327Y0115563D02*
D03*
X0209784Y0134854D02*
D03*
X0222713Y0136206D02*
D03*
D24*
X0076113Y0195557D02*
D03*
X0068555Y0206134D02*
D03*
X0176045Y0057261D02*
D03*
X0183695Y004675D02*
D03*
D25*
X0054163Y0193012D02*
D03*
X0063657Y0184131D02*
D03*
D26*
X0052323Y0169301D02*
D03*
X0041125Y0175903D02*
D03*
X0199397Y0083641D02*
D03*
X0210654Y0077138D02*
D03*
D27*
X0125217Y0210276D02*
D03*
X0125122Y0223276D02*
D03*
X0126008Y0041369D02*
D03*
X0126011Y0028369D02*
D03*
D28*
X0105381Y0222571D02*
D03*
X0108074Y0209853D02*
D03*
X0146634Y0030235D02*
D03*
X0143898Y0042944D02*
D03*
D29*
X0091917Y020442D02*
D03*
X0086757Y0216352D02*
D03*
D30*
X0175452Y0194213D02*
D03*
X0183102Y0204724D02*
D03*
X0076018Y005727D02*
D03*
X0068372Y0046756D02*
D03*
D31*
X0167458Y0215629D02*
D03*
X0161981Y0203839D02*
D03*
D32*
X0212019Y0174507D02*
D03*
X0200686Y0168137D02*
D03*
D33*
X0238165Y0125347D02*
D03*
X0237145Y0133181D02*
D03*
D34*
X0219674Y0189907D02*
D03*
X021526Y0196459D02*
D03*
X0032742Y0063299D02*
D03*
X0037118Y0056722D02*
D03*
D35*
X0014483Y0128495D02*
D03*
X001456Y0120595D02*
D03*
D36*
X0095663Y0235656D02*
D03*
X0088037Y0233595D02*
D03*
D37*
X0087644Y001883D02*
D03*
X009507Y0016134D02*
D03*
D38*
X0085808Y0036371D02*
D03*
X0091129Y0048232D02*
D03*
D39*
X0165107Y0230384D02*
D03*
X0157727Y0233202D02*
D03*
D40*
X0199689Y0059527D02*
D03*
X0190041Y0068239D02*
D03*
D41*
X0161041Y0048772D02*
D03*
X0166413Y0036934D02*
D03*
D42*
X0215681Y005556D02*
D03*
X022059Y0061749D02*
D03*
X0036839Y0195061D02*
D03*
X0031966Y0188844D02*
D03*
D74*
X001456Y0120595D02*
X0019592Y0115563D01*
X0028327D01*
X0014483Y0128495D02*
X0021919Y0135931D01*
X0027266D01*
X009507Y0020186D02*
X0105127Y0030242D01*
X009507Y0016134D02*
Y0020186D01*
X0085808Y0036371D02*
X0087644Y0034534D01*
Y001883D02*
Y0034534D01*
X004858Y0056722D02*
X0052591Y0060733D01*
X0037118Y0056722D02*
X004858D01*
X0032742Y0069801D02*
X0040163Y0077223D01*
X0032742Y0063299D02*
Y0069801D01*
X0044363Y0090747D02*
X0051469Y0083641D01*
X0044363Y0090747D02*
Y0099833D01*
X00402Y0134618D02*
X004458Y0138998D01*
Y0152851D01*
X0063657Y0184131D02*
X0075083Y0195557D01*
X0076113D01*
X0108074Y0209853D02*
X0108497Y0210276D01*
X0125217D01*
X0161981Y0203839D02*
X0171607Y0194213D01*
X0175452D01*
X0200686Y0168137D02*
X0206248Y0162575D01*
Y015166D02*
Y0162575D01*
X0206563Y0112617D02*
X0211313Y0117366D01*
X0206563Y0099944D02*
Y0112617D01*
X0206491Y0099872D02*
X0206563Y0099944D01*
X0176045Y0057261D02*
X0187023Y0068239D01*
X0190041D01*
X0142323Y0041369D02*
X0143898Y0042944D01*
X0126008Y0041369D02*
X0142323D01*
X0076018Y005727D02*
X0085055Y0048232D01*
X0091129D01*
X0146634Y0030235D02*
X0157339Y001953D01*
Y0017084D02*
Y001953D01*
X0164791Y0035313D02*
X0166413Y0036934D01*
X0164791Y0019705D02*
Y0035313D01*
X0199689Y0059527D02*
X0203656Y005556D01*
X0215681D01*
X0210654Y0077138D02*
X022059Y0067201D01*
Y0061749D02*
Y0067201D01*
X0224245Y0116043D02*
X0233549Y0125347D01*
X0238165D01*
X0222713Y0136206D02*
X0225738Y0133181D01*
X0237145D01*
X0212019Y0174507D02*
X0219674Y0182162D01*
Y0189907D01*
X0198402Y0191165D02*
X0203696Y0196459D01*
X021526D01*
X02452Y01663D02*
Y02064D01*
X02307Y02209D02*
X02452Y02064D01*
X0183102Y0206902D02*
X01971Y02209D01*
X0216898D01*
X0165107Y0217979D02*
X0167458Y0215629D01*
X0165107Y0217979D02*
Y0230384D01*
X0146228Y0221063D02*
X0157727Y0232562D01*
Y0233202D01*
X0125122Y0223276D02*
Y0235665D01*
X0133257Y02438D01*
X0105381Y0222571D02*
Y0227121D01*
X0096846Y0235656D02*
X0105381Y0227121D01*
X0095663Y0235656D02*
X0096846D01*
X0086757Y0216352D02*
X0088037Y0217632D01*
Y0233595D01*
X0052113Y0195061D02*
X0054163Y0193012D01*
X0036839Y0195061D02*
X0052113D01*
X0031966Y0181014D02*
Y0188844D01*
Y0181014D02*
X0037076Y0175903D01*
X0041125D01*
X00155Y01876D02*
Y02043D01*
Y0173675D02*
Y01876D01*
X00068Y01789D02*
X00155Y01876D01*
X00068Y0109D02*
Y01789D01*
Y0109D02*
X0019929Y0095871D01*
X0031981D01*
X00583Y02341D02*
Y02374D01*
Y0216389D02*
Y02341D01*
X00155Y0173675D02*
X0032239Y0156937D01*
X00155Y02043D02*
X00453Y02341D01*
X00583D01*
Y0216389D02*
X0068555Y0206134D01*
X00583Y02374D02*
X00647Y02438D01*
X0133257D01*
X0216898Y02209D02*
X02307D01*
X0193998Y02438D02*
X0216898Y02209D01*
X0133257Y02438D02*
X0193998D01*
X0183102Y0204724D02*
Y0206902D01*
X0218636Y0155603D02*
Y0162716D01*
X0228483Y0172563D01*
X0238937D01*
X02452Y01663D01*
Y0086103D02*
Y01663D01*
X02369Y0077803D02*
X02452Y0086103D01*
X0218853Y009585D02*
X02369Y0077803D01*
Y0062718D02*
Y0077803D01*
X01971Y0022918D02*
X02369Y0062718D01*
X0120019Y0007281D02*
X0126011Y0013273D01*
X0118738Y0006D02*
X0120019Y0007281D01*
X0183695Y004675D02*
X01971Y0033345D01*
Y0022918D02*
Y0033345D01*
X0181463Y0007281D02*
X01971Y0022918D01*
X0120019Y0007281D02*
X0181463D01*
X0126011Y0013273D02*
Y0028369D01*
X00789Y0006D02*
X0118738D01*
X0074288Y0010612D02*
X00789Y0006D01*
X0064677Y0010612D02*
X0074288D01*
X0061487Y0013803D02*
X0064677Y0010612D01*
X0061487Y0013803D02*
Y003987D01*
X0068372Y0046756D01*
D75*
X0011836Y0240182D02*
D03*
X0240182D02*
D03*
Y0011836D02*
D03*
X0011836D02*
D03*
D76*
X0064677Y0010612D02*
D03*
D77*
X0044677D02*
D03*
M02*
