G04*
G04 #@! TF.GenerationSoftware,Altium Limited,Altium Designer,18.1.6 (161)*
G04*
G04 Layer_Color=65535*
%FSTAX25Y25*%
%MOIN*%
G70*
G01*
G75*
%ADD10C,0.00500*%
%ADD11C,0.00400*%
%ADD12C,0.00800*%
%ADD13C,0.01000*%
%ADD14C,0.00787*%
%ADD15C,0.00700*%
D10*
X0154363Y0019217D02*
X0156353Y0013557D01*
X0154363Y0019217D02*
X0165683Y0023199D01*
X0167674Y0017539D01*
X0156353Y0013557D02*
X0167674Y0017539D01*
X0235461Y0122878D02*
X0241411Y0123653D01*
X0233912Y0134777D02*
X0235461Y0122878D01*
X0233912Y0134777D02*
X0239861Y0135552D01*
X0241411Y0123653D01*
X0218359Y0186489D02*
X0223335Y0189842D01*
X0211654Y0196441D02*
X0218359Y0186489D01*
X0211654Y0196441D02*
X021663Y0199794D01*
X0223335Y0189842D01*
X0011462Y0130566D02*
X0017462Y0130624D01*
X0017579Y0118625D01*
X001158Y0118566D02*
X0017579Y0118625D01*
X0011462Y0130566D02*
X001158Y0118566D01*
X0096908Y02391D02*
X0098473Y0233307D01*
X0086889Y0230177D02*
X0098473Y0233307D01*
X0085324Y023597D02*
X0086889Y0230177D01*
X0085324Y023597D02*
X0096908Y02391D01*
X0029081Y0063386D02*
X0034076Y0066709D01*
X0040723Y0056719D01*
X0035728Y0053395D02*
X0040723Y0056719D01*
X0029081Y0063386D02*
X0035728Y0053395D01*
X0084647Y0016726D02*
X0086694Y0022366D01*
X0097974Y0018272D01*
X0095927Y0012632D02*
X0097974Y0018272D01*
X0084647Y0016726D02*
X0095927Y0012632D01*
X0166Y0226833D02*
X0168139Y0232438D01*
X0154788Y0231112D02*
X0166Y0226833D01*
X0154788Y0231112D02*
X0156928Y0236717D01*
X0168139Y0232438D01*
X0212025Y005578D02*
X0216726Y0052051D01*
X0212025Y005578D02*
X0219483Y0065181D01*
X0224183Y0061452D01*
X0216726Y0052051D02*
X0224183Y0061452D01*
X0035773Y0198565D02*
X0040496Y0194863D01*
X0033093Y0185419D02*
X0040496Y0194863D01*
X0028371Y018912D02*
X0033093Y0185419D01*
X0028371Y018912D02*
X0035773Y0198565D01*
D11*
X0159889Y0015861D02*
X0163097Y0016989D01*
X0158562Y0019634D02*
X0161769Y0020762D01*
X0239451Y0130961D02*
X023989Y0127589D01*
X0235484Y0130444D02*
X0235924Y0127073D01*
X0218315Y0195503D02*
X0220215Y0192683D01*
X0214998Y0193268D02*
X0216898Y0190448D01*
X0012502Y0126476D02*
X0012536Y0123076D01*
X0016502Y0126515D02*
X0016535Y0123115D01*
X0089929Y0236178D02*
X0093211Y0237065D01*
X0090972Y0232317D02*
X0094254Y0233203D01*
X0032184Y0060526D02*
X0034068Y0057696D01*
X0035515Y0062742D02*
X0037398Y0059911D01*
X0088842Y0016267D02*
X0092038Y0015107D01*
X0090207Y0020027D02*
X0093403Y0018867D01*
X0160776Y0234178D02*
X0163952Y0232966D01*
X0159349Y0230441D02*
X0162526Y0229229D01*
X021849Y0055884D02*
X0220603Y0058548D01*
X0215357Y005837D02*
X021747Y0061034D01*
X0031934Y0192045D02*
X0034031Y0194721D01*
X0035082Y0189577D02*
X0037179Y0192253D01*
D12*
X0104378Y0039D02*
X0109558Y0037877D01*
X0103671Y0035265D02*
X0106953Y0038135D01*
X0109045Y0034099D01*
X0103671Y0035265D02*
X0109045Y0034099D01*
X0039188Y0100902D02*
X0040808Y0095856D01*
X0035601Y0099646D02*
X0039728Y009824D01*
X0037282Y0094409D02*
X0039728Y009824D01*
X0035601Y0099646D02*
X0037282Y0094409D01*
X0042827Y0081844D02*
X0045447Y0077238D01*
X0044373Y0079733D02*
X0048701Y0079203D01*
X0044373Y0079733D02*
X0045981Y0083984D01*
X0048701Y0079203D01*
X0057143Y0068253D02*
X0060668Y0064295D01*
X0054372Y0065651D02*
X0058715Y0066037D01*
X005803Y0061543D02*
X0058715Y0066037D01*
X0054372Y0065651D02*
X005803Y0061543D01*
X0039365Y0151729D02*
X0041026Y0156762D01*
X0037387Y0157858D02*
X0039895Y0154292D01*
X0035663Y0152635D02*
X0039895Y0154292D01*
X0035663Y0152635D02*
X0037387Y0157858D01*
X0031583Y0132884D02*
X0032113Y0138157D01*
X0032152Y013554D02*
X0035374Y0132603D01*
X0032152Y013554D02*
X0035924Y0138075D01*
X0035374Y0132603D02*
X0035924Y0138075D01*
X0036404Y0119032D02*
X0036969Y0113762D01*
X0032636Y0118527D02*
X0036393Y0116315D01*
X0033222Y0113059D02*
X0036393Y0116315D01*
X0032636Y0118527D02*
X0033222Y0113059D01*
X007124Y0197725D02*
X007555Y0200811D01*
X007318Y0199483D02*
X0073256Y0203842D01*
X0068784Y020064D02*
X007318Y0199483D01*
X0068784Y020064D02*
X0073256Y0203842D01*
X0055751Y0187972D02*
X0059368Y0191846D01*
X0057813Y0189741D02*
X0058597Y0185452D01*
X0057813Y0189741D02*
X006235Y0189472D01*
X0058597Y0185452D02*
X006235Y0189472D01*
X004699Y0169307D02*
X0049677Y0173874D01*
X0046351Y0175715D02*
X0048049Y01717D01*
X0043562Y0170975D02*
X0048049Y01717D01*
X0043562Y0170975D02*
X0046351Y0175715D01*
X0122479Y0214854D02*
X0127779Y0214897D01*
X0125077Y0215175D02*
X0127648Y0218696D01*
X0122148Y0218651D02*
X0125077Y0215175D01*
X0122148Y0218651D02*
X0127648Y0218696D01*
X0103795Y0217531D02*
X0108979Y0218634D01*
X0104684Y0213835D02*
X0106498Y0217799D01*
X0110063Y0214979D01*
X0104684Y0213835D02*
X0110063Y0214979D01*
X008761Y0207567D02*
X0092473Y0209675D01*
X0089876Y0208876D02*
X009087Y0213122D01*
X0085823Y0210934D02*
X0089876Y0208876D01*
X0085823Y0210934D02*
X009087Y0213122D01*
X0175971Y0199521D02*
X0180259Y0196407D01*
X0178251Y0198236D02*
X0182412Y019954D01*
X0177962Y0202772D02*
X0178251Y0198236D01*
X0177962Y0202772D02*
X0182412Y019954D01*
X0163164Y0212548D02*
X0167973Y021032D01*
X0161657Y0209059D02*
X0165488Y0211141D01*
X0166648Y0206746D01*
X0161657Y0209059D02*
X0166648Y0206746D01*
X0141821Y0213414D02*
X0147004Y0212307D01*
X0144426Y0213165D02*
X01477Y0216044D01*
X0142321Y0217193D02*
X0144426Y0213165D01*
X0142321Y0217193D02*
X01477Y0216044D01*
X0209809Y0155631D02*
X0211421Y0150582D01*
X0210886Y0153246D02*
X0215011Y0151833D01*
X0210886Y0153246D02*
X0213338Y0157073D01*
X0215011Y0151833D01*
X0206735Y0174515D02*
X0209336Y0169897D01*
X0203473Y0172563D02*
X0207798Y0172015D01*
X0206172Y0167771D02*
X0207798Y0172015D01*
X0203473Y0172563D02*
X0206172Y0167771D01*
X0190342Y0187565D02*
X0193886Y0183624D01*
X0192304Y0185833D02*
X0196645Y0186239D01*
X0192304Y0185833D02*
X0192967Y0190329D01*
X0196645Y0186239D01*
X0071212Y0055074D02*
X0075501Y0051961D01*
X0069061Y005194D02*
X0073221Y0053245D01*
X0073512Y0048709D01*
X0069061Y005194D02*
X0073512Y0048709D01*
X0085222Y0041673D02*
X009006Y0039508D01*
X0087718Y0040885D02*
X0091521Y0043017D01*
X0086501Y0045264D02*
X0087718Y0040885D01*
X0086501Y0045264D02*
X0091521Y0043017D01*
X0210065Y009598D02*
X02117Y0101021D01*
X0211183Y0098455D02*
X021371Y0094902D01*
X0211183Y0098455D02*
X0215407Y0100134D01*
X021371Y0094902D02*
X0215407Y0100134D01*
X0219396Y0113821D02*
X0219931Y0119094D01*
X021614Y0119378D02*
X021936Y0116438D01*
X0215585Y0113906D02*
X021936Y0116438D01*
X0215585Y0113906D02*
X021614Y0119378D01*
X0214075Y0138022D02*
X0214631Y0132751D01*
X0214646Y0135468D02*
X02184Y0133249D01*
X0214646Y0135468D02*
X0217823Y0138719D01*
X02184Y0133249D01*
X0176655Y0052012D02*
X0180937Y0055135D01*
X0178974Y0049001D02*
X0179013Y005336D01*
X0183418Y0052241D01*
X0178974Y0049001D02*
X0183418Y0052241D01*
X0194465Y0060601D02*
X0198013Y0064538D01*
X0195123Y0067008D02*
X0195983Y0062733D01*
X0191441Y0062922D02*
X0195983Y0062733D01*
X0191441Y0062922D02*
X0195123Y0067008D01*
X0202084Y0079091D02*
X0204731Y0083683D01*
X0203692Y008128D02*
X0205426Y007728D01*
X0203692Y008128D02*
X0208173Y0082044D01*
X0205426Y007728D02*
X0208173Y0082044D01*
X0123413Y0036766D02*
X0128713Y0036773D01*
X0123518Y0032966D02*
X0126113Y003647D01*
X0129018Y0032973D01*
X0123518Y0032966D02*
X0129018Y0032973D01*
X0143022Y0034161D02*
X0148203Y0035281D01*
X01455Y0035003D02*
X0147302Y0038974D01*
X0141926Y0037811D02*
X01455Y0035003D01*
X0141926Y0037811D02*
X0147302Y0038974D01*
X0160579Y0043509D02*
X0165403Y0045703D01*
X0162244Y0040091D02*
X0163161Y0044354D01*
X016725Y0042369D01*
X0162244Y0040091D02*
X016725Y0042369D01*
D13*
X0113868Y0041239D02*
X0114801Y0045539D01*
X0101521Y0044225D02*
X010239Y0048231D01*
X0114801Y0045539D01*
X0097832Y002722D02*
X0110244Y0024528D01*
X0111198Y0028926D01*
X0097832Y002722D02*
X0098786Y0031618D01*
X0045877Y0093807D02*
X0050066Y0095152D01*
X0042281Y0105991D02*
X0046185Y0107244D01*
X0050066Y0095152D01*
X0025714Y0100673D02*
X0029595Y0088581D01*
X003388Y0089956D01*
X0025714Y0100673D02*
X0029998Y0102049D01*
X0033621Y0080634D02*
X0037445Y008281D01*
X00399Y0069595D02*
X0043464Y0071623D01*
X0033621Y0080634D02*
X00399Y0069595D01*
X0052309Y0091265D02*
X0058588Y0080226D01*
X0048397Y008904D02*
X0052309Y0091265D01*
X0054677Y0078001D02*
X0058588Y0080226D01*
X0066132Y0064474D02*
X0069418Y00674D01*
X005791Y0074158D02*
X0060972Y0076885D01*
X0069418Y00674D01*
X0044916Y0062586D02*
X0053362Y0053102D01*
X0056723Y0056094D01*
X0044916Y0062586D02*
X0048276Y0065579D01*
X0042257Y0147089D02*
X0046435Y0145709D01*
X0046522Y0159055D02*
X0050415Y015777D01*
X0046435Y0145709D02*
X0050415Y015777D01*
X0026018Y0152448D02*
X0029999Y0164508D01*
X0026018Y0152448D02*
X0030291Y0151038D01*
X0029999Y0164508D02*
X0034272Y0163098D01*
X0023907Y01425D02*
X0028285Y014206D01*
X0022636Y0129864D02*
X0026715Y0129454D01*
X0022636Y0129864D02*
X0023907Y01425D01*
X0044028Y0127712D02*
X0045299Y0140349D01*
X0040821Y0140799D02*
X0045299Y0140349D01*
X003955Y0128163D02*
X0044028Y0127712D01*
X0041518Y0110729D02*
X0045893Y0111198D01*
X0040463Y0123389D02*
X0044539Y0123826D01*
X0045893Y0111198D01*
X0023162Y0121535D02*
X0024515Y0108907D01*
X0028989Y0109387D01*
X0023162Y0121535D02*
X0027636Y0122014D01*
X007084Y0192273D02*
X0073401Y0188695D01*
X008134Y0199422D02*
X0083727Y0196089D01*
X0073401Y0188695D02*
X0083727Y0196089D01*
X0060885Y0206176D02*
X0071211Y021357D01*
X0060885Y0206176D02*
X0063504Y0202517D01*
X0071211Y021357D02*
X007383Y0209911D01*
X005547Y0200273D02*
X0058686Y019727D01*
X0046803Y019099D02*
X00498Y0188192D01*
X0046803Y019099D02*
X005547Y0200273D01*
X0062518Y0176318D02*
X0071185Y0185601D01*
X0067896Y0188672D02*
X0071185Y0185601D01*
X0059229Y0179389D02*
X0062518Y0176318D01*
X0048835Y016416D02*
X0052627Y0161929D01*
X0055533Y0174954D02*
X0059067Y0172875D01*
X0052627Y0161929D02*
X0059067Y0172875D01*
X0034096Y0172831D02*
X0040536Y0183777D01*
X0034096Y0172831D02*
X0037975Y0170549D01*
X0040536Y0183777D02*
X0044415Y0181495D01*
X0119014Y0210625D02*
X011905Y0206225D01*
X0131716Y0210429D02*
X013175Y0206329D01*
X011905Y0206225D02*
X013175Y0206329D01*
X0118874Y0227724D02*
X0131573Y0227829D01*
X0118874Y0227724D02*
X011891Y0223224D01*
X0131573Y0227829D02*
X013161Y0223329D01*
X0110613Y0227774D02*
X0111528Y022347D01*
X0098191Y0225131D02*
X0099044Y0221121D01*
X0098191Y0225131D02*
X0110613Y0227774D01*
X0102665Y0204101D02*
X0115087Y0206745D01*
X011415Y0211146D02*
X0115087Y0206745D01*
X0101728Y0208503D02*
X0102665Y0204101D01*
X0086069Y0202321D02*
X0087819Y0198284D01*
X0097841Y0207098D02*
X0099472Y0203336D01*
X0087819Y0198284D02*
X0099472Y0203336D01*
X0079268Y021801D02*
X009092Y0223062D01*
X0079268Y021801D02*
X0081058Y0213881D01*
X009092Y0223062D02*
X009271Y0218933D01*
X0168085Y019462D02*
X0170671Y019818D01*
X0178361Y0187157D02*
X018077Y0190474D01*
X0168085Y019462D02*
X0178361Y0187157D01*
X018072Y0212016D02*
X0190996Y0204552D01*
X0178076Y0208375D02*
X018072Y0212016D01*
X0188351Y0200911D02*
X0190996Y0204552D01*
X0172915Y0212659D02*
X0174765Y0216651D01*
X0161518Y0218271D02*
X0163242Y0221991D01*
X0174765Y0216651D01*
X0154202Y0202484D02*
X0165725Y0197144D01*
X0167617Y0201227D01*
X0154202Y0202484D02*
X0156094Y0206567D01*
X0136602Y0205735D02*
X0137521Y0210038D01*
X0149022Y0203082D02*
X0149878Y0207092D01*
X0136602Y0205735D02*
X0149022Y0203082D01*
X0141093Y0226761D02*
X0153513Y0224108D01*
X0140153Y022236D02*
X0141093Y0226761D01*
X0152573Y0219707D02*
X0153513Y0224108D01*
X0200552Y0156349D02*
X0204743Y0157688D01*
X0204415Y0144251D02*
X0208321Y0145498D01*
X0200552Y0156349D02*
X0204415Y0144251D01*
X0221033Y016289D02*
X0224896Y0150791D01*
X0216746Y0161521D02*
X0221033Y016289D01*
X022061Y0149422D02*
X0224896Y0150791D01*
X0214713Y0168909D02*
X0218547Y0171068D01*
X0208741Y0180121D02*
X0212314Y0182133D01*
X0218547Y0171068D01*
X0193581Y0171582D02*
X0199814Y0160516D01*
X0203735Y0162725D01*
X0193581Y0171582D02*
X0197502Y017379D01*
X0181607Y0184419D02*
X0184879Y018736D01*
X0190097Y0174974D02*
X0193147Y0177715D01*
X0181607Y0184419D02*
X0190097Y0174974D01*
X0197595Y0198793D02*
X0206086Y0189348D01*
X0194249Y0195784D02*
X0197595Y0198793D01*
X020274Y018634D02*
X0206086Y0189348D01*
X0080801Y0053304D02*
X0083385Y0056865D01*
X0070699Y0061007D02*
X0073107Y0064325D01*
X0083385Y0056865D01*
X0060478Y0046925D02*
X0070756Y0039465D01*
X0073399Y0043107D01*
X0060478Y0046925D02*
X0063121Y0050567D01*
X0078515Y0035253D02*
X0080312Y0039269D01*
X0090107Y0030065D02*
X0091781Y0033807D01*
X0078515Y0035253D02*
X0090107Y0030065D01*
X0087297Y0054877D02*
X0098889Y0049689D01*
X0085459Y005077D02*
X0087297Y0054877D01*
X0097051Y0045582D02*
X0098889Y0049689D01*
X0204599Y0107004D02*
X0208785Y0105646D01*
X0200681Y0094923D02*
X0204581Y0093658D01*
X0200681Y0094923D02*
X0204599Y0107004D01*
X0221132Y008829D02*
X022505Y010037D01*
X022077Y0101759D02*
X022505Y010037D01*
X0216852Y0089678D02*
X0221132Y008829D01*
X0223222Y0109915D02*
X0227599Y0109471D01*
X0224801Y012252D02*
X022888Y0122107D01*
X0227599Y0109471D02*
X022888Y0122107D01*
X0206209Y011164D02*
X020749Y0124275D01*
X0206209Y011164D02*
X0210686Y0111186D01*
X020749Y0124275D02*
X0211967Y0123821D01*
X0205155Y0140601D02*
X0209531Y0141062D01*
X0206487Y0127971D02*
X0210565Y0128401D01*
X0205155Y0140601D02*
X0206487Y0127971D01*
X0226537Y0142856D02*
X0227869Y0130226D01*
X0222062Y0142384D02*
X0226537Y0142856D01*
X0223394Y0129754D02*
X0227869Y0130226D01*
X0178697Y0064146D02*
X018129Y0060591D01*
X0168436Y0056663D02*
X0170852Y005335D01*
X0168436Y0056663D02*
X0178697Y0064146D01*
X0181104Y0039291D02*
X0191366Y0046774D01*
X0188714Y005041D02*
X0191366Y0046774D01*
X0178453Y0042927D02*
X0181104Y0039291D01*
X0195241Y0055189D02*
X019851Y0052244D01*
X0203967Y0064422D02*
X0207012Y0061677D01*
X019851Y0052244D02*
X0207012Y0061677D01*
X0182539Y0066637D02*
X0191042Y0076071D01*
X0182539Y0066637D02*
X0185882Y0063625D01*
X0191042Y0076071D02*
X0194384Y0073059D01*
X0199029Y009101D02*
X0202841Y0088812D01*
X0192685Y0080007D02*
X0196238Y007796D01*
X0192685Y0080007D02*
X0199029Y009101D01*
X0211312Y0069269D02*
X0217655Y0080272D01*
X0213756Y0082519D02*
X0217655Y0080272D01*
X0207413Y0071517D02*
X0211312Y0069269D01*
X0132203Y0045377D02*
X0132208Y0040977D01*
X0119503Y0045362D02*
X0119508Y0041262D01*
X0119503Y0045362D02*
X0132203Y0045377D01*
X0119528Y0023862D02*
X0132228Y0023877D01*
X0132223Y0028377D02*
X0132228Y0023877D01*
X0119523Y0028362D02*
X0119528Y0023862D01*
X0140489Y0029316D02*
X0141419Y0025015D01*
X0152966Y0031707D02*
X0153832Y0027699D01*
X0141419Y0025015D02*
X0153832Y0027699D01*
X0136875Y0046029D02*
X0149288Y0048714D01*
X0136875Y0046029D02*
X0137826Y0041631D01*
X0149288Y0048714D02*
X0150239Y0044315D01*
X0165029Y0054981D02*
X016685Y0050976D01*
X0153468Y0049722D02*
X0155166Y004599D01*
X0153468Y0049722D02*
X0165029Y0054981D01*
X016237Y0030152D02*
X0173931Y003541D01*
X0172067Y0039506D02*
X0173931Y003541D01*
X0160507Y0034248D02*
X016237Y0030152D01*
X0243289Y0077825D02*
X0248537D01*
X0245913Y0080449D02*
Y0075201D01*
X0239589Y0067988D02*
X0243588D01*
D14*
X0039677Y0005612D02*
X0039677Y0015612D01*
X0069677D01*
Y0005612D02*
Y0015612D01*
X0039677Y0005612D02*
X0069677D01*
D15*
X0186548Y0031749D02*
Y002775D01*
X0186738Y0031749D02*
Y002775D01*
X0185977Y0031749D02*
X0188262D01*
X0188833Y0031559D01*
X0189024Y0031369D01*
X0189214Y0030988D01*
Y0030607D01*
X0189024Y0030226D01*
X0188833Y0030036D01*
X0188262Y0029845D01*
Y0031749D02*
X0188643Y0031559D01*
X0188833Y0031369D01*
X0189024Y0030988D01*
Y0030607D01*
X0188833Y0030226D01*
X0188643Y0030036D01*
X0188262Y0029845D01*
X0186738D02*
X0188262D01*
X0188833Y0029655D01*
X0189024Y0029464D01*
X0189214Y0029083D01*
Y0028512D01*
X0189024Y0028131D01*
X0188833Y0027941D01*
X0188262Y002775D01*
X0185977D01*
X0188262Y0029845D02*
X0188643Y0029655D01*
X0188833Y0029464D01*
X0189024Y0029083D01*
Y0028512D01*
X0188833Y0028131D01*
X0188643Y0027941D01*
X0188262Y002775D01*
X0190128Y0030416D02*
X0191271Y002775D01*
X0190319Y0030416D02*
X0191271Y0028131D01*
X0192413Y0030416D02*
X0191271Y002775D01*
X019089Y0026989D01*
X0190509Y0026608D01*
X0190128Y0026417D01*
X0189938D01*
X0189747Y0026608D01*
X0189938Y0026798D01*
X0190128Y0026608D01*
X0189747Y0030416D02*
X019089D01*
X0191652D02*
X0192794D01*
X0198279Y0031749D02*
Y002775D01*
X0198469Y0031749D02*
Y002775D01*
X0197136Y0031749D02*
X0196946Y0030607D01*
Y0031749D01*
X0199802D01*
Y0030607D01*
X0199612Y0031749D01*
X0197707Y002775D02*
X019904D01*
X0201707Y0031749D02*
Y002775D01*
X0201897Y0031749D02*
Y002775D01*
X0200564Y0031749D02*
X0200374Y0030607D01*
Y0031749D01*
X020323D01*
Y0030607D01*
X020304Y0031749D01*
X0201135Y002775D02*
X0202468D01*
X0205135Y0031749D02*
Y002775D01*
X0205325Y0031749D02*
Y002775D01*
X0203992Y0031749D02*
X0203801Y0030607D01*
Y0031749D01*
X0206658D01*
Y0030607D01*
X0206468Y0031749D01*
X0204563Y002775D02*
X0205896D01*
X0213685Y0030226D02*
X0213495Y0030607D01*
X0213114Y0030797D01*
X0212542D01*
X0212161Y0030607D01*
X0211971Y0030416D01*
X0211781Y0029845D01*
Y0029274D01*
X0211971Y0028893D01*
X0212352Y0028703D01*
X0212923D01*
X0213304Y0028893D01*
X0213495Y0029274D01*
X0212542Y0030797D02*
X0212161Y0030416D01*
X0211971Y0029845D01*
Y0029274D01*
X0212161Y0028893D01*
X0212352Y0028703D01*
X0213685Y0030797D02*
X0213495Y0029274D01*
Y0028893D01*
X0213876Y0028703D01*
X0214256D01*
X0214637Y0029083D01*
X0214828Y0029655D01*
Y0030036D01*
X0214637Y0030607D01*
X0214447Y0030988D01*
X0214066Y0031369D01*
X0213685Y0031559D01*
X0213114Y0031749D01*
X0212542D01*
X0211971Y0031559D01*
X021159Y0031369D01*
X0211209Y0030988D01*
X0211019Y0030607D01*
X0210828Y0030036D01*
Y0029464D01*
X0211019Y0028893D01*
X0211209Y0028512D01*
X021159Y0028131D01*
X0211971Y0027941D01*
X0212542Y002775D01*
X0213114D01*
X0213685Y0027941D01*
X0214066Y0028131D01*
X0214256Y0028322D01*
X0213876Y0030797D02*
X0213685Y0029274D01*
Y0028893D01*
X0213876Y0028703D01*
X0215475Y0030988D02*
X0215666Y0030797D01*
X0215475Y0030607D01*
X0215285Y0030797D01*
Y0030988D01*
X0215475Y0031369D01*
X0215666Y0031559D01*
X0216237Y0031749D01*
X0216999D01*
X021757Y0031559D01*
X021776Y0031369D01*
X0217951Y0030988D01*
Y0030607D01*
X021776Y0030226D01*
X0217189Y0029845D01*
X0216237Y0029464D01*
X0215856Y0029274D01*
X0215475Y0028893D01*
X0215285Y0028322D01*
Y002775D01*
X0216999Y0031749D02*
X0217379Y0031559D01*
X021757Y0031369D01*
X021776Y0030988D01*
Y0030607D01*
X021757Y0030226D01*
X0216999Y0029845D01*
X0216237Y0029464D01*
X0215285Y0028131D02*
X0215475Y0028322D01*
X0215856D01*
X0216808Y0027941D01*
X0217379D01*
X021776Y0028131D01*
X0217951Y0028322D01*
Y0028703D01*
X0215856Y0028322D02*
X0216808Y002775D01*
X021757D01*
X021776Y0027941D01*
X0217951Y0028322D01*
X0219684Y0031749D02*
X0219112Y0031559D01*
X0218732Y0030988D01*
X0218541Y0030036D01*
Y0029464D01*
X0218732Y0028512D01*
X0219112Y0027941D01*
X0219684Y002775D01*
X0220065D01*
X0220636Y0027941D01*
X0221017Y0028512D01*
X0221207Y0029464D01*
Y0030036D01*
X0221017Y0030988D01*
X0220636Y0031559D01*
X0220065Y0031749D01*
X0219684D01*
X0219303Y0031559D01*
X0219112Y0031369D01*
X0218922Y0030988D01*
X0218732Y0030036D01*
Y0029464D01*
X0218922Y0028512D01*
X0219112Y0028131D01*
X0219303Y0027941D01*
X0219684Y002775D01*
X0220065D02*
X0220445Y0027941D01*
X0220636Y0028131D01*
X0220826Y0028512D01*
X0221017Y0029464D01*
Y0030036D01*
X0220826Y0030988D01*
X0220636Y0031369D01*
X0220445Y0031559D01*
X0220065Y0031749D01*
X0221988Y0030988D02*
X0222178Y0030797D01*
X0221988Y0030607D01*
X0221798Y0030797D01*
Y0030988D01*
X0221988Y0031369D01*
X0222178Y0031559D01*
X022275Y0031749D01*
X0223512D01*
X0224083Y0031559D01*
X0224273Y0031369D01*
X0224464Y0030988D01*
Y0030607D01*
X0224273Y0030226D01*
X0223702Y0029845D01*
X022275Y0029464D01*
X0222369Y0029274D01*
X0221988Y0028893D01*
X0221798Y0028322D01*
Y002775D01*
X0223512Y0031749D02*
X0223892Y0031559D01*
X0224083Y0031369D01*
X0224273Y0030988D01*
Y0030607D01*
X0224083Y0030226D01*
X0223512Y0029845D01*
X022275Y0029464D01*
X0221798Y0028131D02*
X0221988Y0028322D01*
X0222369D01*
X0223321Y0027941D01*
X0223892D01*
X0224273Y0028131D01*
X0224464Y0028322D01*
Y0028703D01*
X0222369Y0028322D02*
X0223321Y002775D01*
X0224083D01*
X0224273Y0027941D01*
X0224464Y0028322D01*
X0226197Y0031749D02*
X0225625Y0031559D01*
X0225244Y0030988D01*
X0225054Y0030036D01*
Y0029464D01*
X0225244Y0028512D01*
X0225625Y0027941D01*
X0226197Y002775D01*
X0226577D01*
X0227149Y0027941D01*
X022753Y0028512D01*
X022772Y0029464D01*
Y0030036D01*
X022753Y0030988D01*
X0227149Y0031559D01*
X0226577Y0031749D01*
X0226197D01*
X0225816Y0031559D01*
X0225625Y0031369D01*
X0225435Y0030988D01*
X0225244Y0030036D01*
Y0029464D01*
X0225435Y0028512D01*
X0225625Y0028131D01*
X0225816Y0027941D01*
X0226197Y002775D01*
X0226577D02*
X0226958Y0027941D01*
X0227149Y0028131D01*
X0227339Y0028512D01*
X022753Y0029464D01*
Y0030036D01*
X0227339Y0030988D01*
X0227149Y0031369D01*
X0226958Y0031559D01*
X0226577Y0031749D01*
X0198748Y0024841D02*
X0198557Y0024651D01*
X0198748Y002446D01*
X0198938Y0024651D01*
X0198748Y0024841D01*
Y0023508D02*
Y0020842D01*
X0198938Y0023508D02*
Y0020842D01*
X0198177Y0023508D02*
X0198938D01*
X0198177Y0020842D02*
X019951D01*
X0200805Y0024841D02*
Y0020842D01*
X0200995Y0024841D02*
X0202138Y0021413D01*
X0200805Y0024841D02*
X0202138Y0020842D01*
X0203471Y0024841D02*
X0202138Y0020842D01*
X0203471Y0024841D02*
Y0020842D01*
X0203661Y0024841D02*
Y0020842D01*
X0200233Y0024841D02*
X0200995D01*
X0203471D02*
X0204233D01*
X0200233Y0020842D02*
X0201376D01*
X02029D02*
X0204233D01*
X020507Y0023127D02*
Y0022937D01*
X020488D01*
Y0023127D01*
X020507Y0023318D01*
X0205451Y0023508D01*
X0206213D01*
X0206594Y0023318D01*
X0206784Y0023127D01*
X0206975Y0022747D01*
Y0021413D01*
X0207165Y0021033D01*
X0207356Y0020842D01*
X0206784Y0023127D02*
Y0021413D01*
X0206975Y0021033D01*
X0207356Y0020842D01*
X0207546D01*
X0206784Y0022747D02*
X0206594Y0022556D01*
X0205451Y0022366D01*
X020488Y0022175D01*
X020469Y0021794D01*
Y0021413D01*
X020488Y0021033D01*
X0205451Y0020842D01*
X0206023D01*
X0206403Y0021033D01*
X0206784Y0021413D01*
X0205451Y0022366D02*
X020507Y0022175D01*
X020488Y0021794D01*
Y0021413D01*
X020507Y0021033D01*
X0205451Y0020842D01*
X0208689Y0024841D02*
Y0020842D01*
X0208879Y0024841D02*
Y0020842D01*
X0210784Y0023508D02*
X0208879Y0021604D01*
X0209831Y0022366D02*
X0210974Y0020842D01*
X0209641Y0022366D02*
X0210784Y0020842D01*
X0208117Y0024841D02*
X0208879D01*
X0210212Y0023508D02*
X0211355D01*
X0208117Y0020842D02*
X020945D01*
X0210212D02*
X0211355D01*
X0212078Y0022366D02*
X0214364D01*
Y0022747D01*
X0214173Y0023127D01*
X0213983Y0023318D01*
X0213602Y0023508D01*
X0213031D01*
X0212459Y0023318D01*
X0212078Y0022937D01*
X0211888Y0022366D01*
Y0021985D01*
X0212078Y0021413D01*
X0212459Y0021033D01*
X0213031Y0020842D01*
X0213411D01*
X0213983Y0021033D01*
X0214364Y0021413D01*
X0214173Y0022366D02*
Y0022937D01*
X0213983Y0023318D01*
X0213031Y0023508D02*
X021265Y0023318D01*
X0212269Y0022937D01*
X0212078Y0022366D01*
Y0021985D01*
X0212269Y0021413D01*
X021265Y0021033D01*
X0213031Y0020842D01*
X0215544Y0023508D02*
Y0020842D01*
X0215735Y0023508D02*
Y0020842D01*
Y0022366D02*
X0215925Y0022937D01*
X0216306Y0023318D01*
X0216687Y0023508D01*
X0217258D01*
X0217449Y0023318D01*
Y0023127D01*
X0217258Y0022937D01*
X0217068Y0023127D01*
X0217258Y0023318D01*
X0214973Y0023508D02*
X0215735D01*
X0214973Y0020842D02*
X0216306D01*
X0218249Y0021223D02*
X0218058Y0021033D01*
X0218249Y0020842D01*
X0218439Y0021033D01*
X0218249Y0021223D01*
X0219639Y0024841D02*
X0220972Y0020842D01*
X0219829Y0024841D02*
X0220972Y0021413D01*
X0222305Y0024841D02*
X0220972Y0020842D01*
X0219258Y0024841D02*
X0220401D01*
X0221543D02*
X0222686D01*
X0223771Y0023508D02*
Y0020842D01*
X0223962Y0023508D02*
Y0020842D01*
Y0022937D02*
X0224342Y0023318D01*
X0224914Y0023508D01*
X0225295D01*
X0225866Y0023318D01*
X0226056Y0022937D01*
Y0020842D01*
X0225295Y0023508D02*
X0225676Y0023318D01*
X0225866Y0022937D01*
Y0020842D01*
X02232Y0023508D02*
X0223962D01*
X02232Y0020842D02*
X0224533D01*
X0225295D02*
X0226628D01*
X0039403Y0220703D02*
X0039212Y0220513D01*
X0039403Y0220322D01*
X0039593Y0220513D01*
X0039403Y0220703D01*
Y021937D02*
Y0216704D01*
X0039593Y021937D02*
Y0216704D01*
X0038831Y021937D02*
X0039593D01*
X0038831Y0216704D02*
X0040165D01*
X004146Y0220703D02*
Y0216704D01*
X004165Y0220703D02*
X0042792Y0217276D01*
X004146Y0220703D02*
X0042792Y0216704D01*
X0044126Y0220703D02*
X0042792Y0216704D01*
X0044126Y0220703D02*
Y0216704D01*
X0044316Y0220703D02*
Y0216704D01*
X0040888Y0220703D02*
X004165D01*
X0044126D02*
X0044887D01*
X0040888Y0216704D02*
X0042031D01*
X0043554D02*
X0044887D01*
X0045725Y0218989D02*
Y0218799D01*
X0045535D01*
Y0218989D01*
X0045725Y021918D01*
X0046106Y021937D01*
X0046868D01*
X0047249Y021918D01*
X0047439Y0218989D01*
X004763Y0218608D01*
Y0217276D01*
X004782Y0216895D01*
X0048011Y0216704D01*
X0047439Y0218989D02*
Y0217276D01*
X004763Y0216895D01*
X0048011Y0216704D01*
X0048201D01*
X0047439Y0218608D02*
X0047249Y0218418D01*
X0046106Y0218228D01*
X0045535Y0218037D01*
X0045344Y0217656D01*
Y0217276D01*
X0045535Y0216895D01*
X0046106Y0216704D01*
X0046677D01*
X0047058Y0216895D01*
X0047439Y0217276D01*
X0046106Y0218228D02*
X0045725Y0218037D01*
X0045535Y0217656D01*
Y0217276D01*
X0045725Y0216895D01*
X0046106Y0216704D01*
X0049343Y0220703D02*
Y0216704D01*
X0049534Y0220703D02*
Y0216704D01*
X0051438Y021937D02*
X0049534Y0217466D01*
X0050486Y0218228D02*
X0051629Y0216704D01*
X0050296Y0218228D02*
X0051438Y0216704D01*
X0048772Y0220703D02*
X0049534D01*
X0050867Y021937D02*
X005201D01*
X0048772Y0216704D02*
X0050105D01*
X0050867D02*
X005201D01*
X0052733Y0218228D02*
X0055019D01*
Y0218608D01*
X0054828Y0218989D01*
X0054638Y021918D01*
X0054257Y021937D01*
X0053685D01*
X0053114Y021918D01*
X0052733Y0218799D01*
X0052543Y0218228D01*
Y0217847D01*
X0052733Y0217276D01*
X0053114Y0216895D01*
X0053685Y0216704D01*
X0054066D01*
X0054638Y0216895D01*
X0055019Y0217276D01*
X0054828Y0218228D02*
Y0218799D01*
X0054638Y021918D01*
X0053685Y021937D02*
X0053305Y021918D01*
X0052924Y0218799D01*
X0052733Y0218228D01*
Y0217847D01*
X0052924Y0217276D01*
X0053305Y0216895D01*
X0053685Y0216704D01*
X0056199Y021937D02*
Y0216704D01*
X005639Y021937D02*
Y0216704D01*
Y0218228D02*
X005658Y0218799D01*
X0056961Y021918D01*
X0057342Y021937D01*
X0057913D01*
X0058104Y021918D01*
Y0218989D01*
X0057913Y0218799D01*
X0057723Y0218989D01*
X0057913Y021918D01*
X0055628Y021937D02*
X005639D01*
X0055628Y0216704D02*
X0056961D01*
X0058903Y0217085D02*
X0058713Y0216895D01*
X0058903Y0216704D01*
X0059094Y0216895D01*
X0058903Y0217085D01*
X0060294Y0220703D02*
X0061627Y0216704D01*
X0060484Y0220703D02*
X0061627Y0217276D01*
X006296Y0220703D02*
X0061627Y0216704D01*
X0059913Y0220703D02*
X0061055D01*
X0062198D02*
X0063341D01*
X0064426Y021937D02*
Y0216704D01*
X0064616Y021937D02*
Y0216704D01*
Y0218799D02*
X0064997Y021918D01*
X0065569Y021937D01*
X0065949D01*
X0066521Y021918D01*
X0066711Y0218799D01*
Y0216704D01*
X0065949Y021937D02*
X006633Y021918D01*
X0066521Y0218799D01*
Y0216704D01*
X0063855Y021937D02*
X0064616D01*
X0063855Y0216704D02*
X0065188D01*
X0065949D02*
X0067282D01*
X0027203Y0227611D02*
Y0223612D01*
X0027393Y0227611D02*
Y0223612D01*
X0026632Y0227611D02*
X0028917D01*
X0029488Y0227421D01*
X0029678Y0227231D01*
X0029869Y022685D01*
Y0226469D01*
X0029678Y0226088D01*
X0029488Y0225898D01*
X0028917Y0225707D01*
Y0227611D02*
X0029298Y0227421D01*
X0029488Y0227231D01*
X0029678Y022685D01*
Y0226469D01*
X0029488Y0226088D01*
X0029298Y0225898D01*
X0028917Y0225707D01*
X0027393D02*
X0028917D01*
X0029488Y0225517D01*
X0029678Y0225326D01*
X0029869Y0224945D01*
Y0224374D01*
X0029678Y0223993D01*
X0029488Y0223803D01*
X0028917Y0223612D01*
X0026632D01*
X0028917Y0225707D02*
X0029298Y0225517D01*
X0029488Y0225326D01*
X0029678Y0224945D01*
Y0224374D01*
X0029488Y0223993D01*
X0029298Y0223803D01*
X0028917Y0223612D01*
X0030783Y0226278D02*
X0031926Y0223612D01*
X0030973Y0226278D02*
X0031926Y0223993D01*
X0033068Y0226278D02*
X0031926Y0223612D01*
X0031545Y0222851D01*
X0031164Y022247D01*
X0030783Y0222279D01*
X0030593D01*
X0030402Y022247D01*
X0030593Y022266D01*
X0030783Y022247D01*
X0030402Y0226278D02*
X0031545D01*
X0032307D02*
X0033449D01*
X0038934Y0227611D02*
Y0223612D01*
X0039124Y0227611D02*
Y0223612D01*
X0037791Y0227611D02*
X0037601Y0226469D01*
Y0227611D01*
X0040457D01*
Y0226469D01*
X0040267Y0227611D01*
X0038362Y0223612D02*
X0039695D01*
X0042362Y0227611D02*
Y0223612D01*
X0042552Y0227611D02*
Y0223612D01*
X0041219Y0227611D02*
X0041028Y0226469D01*
Y0227611D01*
X0043885D01*
Y0226469D01*
X0043694Y0227611D01*
X004179Y0223612D02*
X0043123D01*
X0045789Y0227611D02*
Y0223612D01*
X004598Y0227611D02*
Y0223612D01*
X0044647Y0227611D02*
X0044456Y0226469D01*
Y0227611D01*
X0047313D01*
Y0226469D01*
X0047122Y0227611D01*
X0045218Y0223612D02*
X0046551D01*
X005434Y0226088D02*
X0054149Y0226469D01*
X0053768Y0226659D01*
X0053197D01*
X0052816Y0226469D01*
X0052626Y0226278D01*
X0052435Y0225707D01*
Y0225136D01*
X0052626Y0224755D01*
X0053007Y0224565D01*
X0053578D01*
X0053959Y0224755D01*
X0054149Y0225136D01*
X0053197Y0226659D02*
X0052816Y0226278D01*
X0052626Y0225707D01*
Y0225136D01*
X0052816Y0224755D01*
X0053007Y0224565D01*
X005434Y0226659D02*
X0054149Y0225136D01*
Y0224755D01*
X005453Y0224565D01*
X0054911D01*
X0055292Y0224945D01*
X0055483Y0225517D01*
Y0225898D01*
X0055292Y0226469D01*
X0055102Y022685D01*
X0054721Y0227231D01*
X005434Y0227421D01*
X0053768Y0227611D01*
X0053197D01*
X0052626Y0227421D01*
X0052245Y0227231D01*
X0051864Y022685D01*
X0051674Y0226469D01*
X0051483Y0225898D01*
Y0225326D01*
X0051674Y0224755D01*
X0051864Y0224374D01*
X0052245Y0223993D01*
X0052626Y0223803D01*
X0053197Y0223612D01*
X0053768D01*
X005434Y0223803D01*
X0054721Y0223993D01*
X0054911Y0224184D01*
X005453Y0226659D02*
X005434Y0225136D01*
Y0224755D01*
X005453Y0224565D01*
X005613Y022685D02*
X005632Y0226659D01*
X005613Y0226469D01*
X005594Y0226659D01*
Y022685D01*
X005613Y0227231D01*
X005632Y0227421D01*
X0056892Y0227611D01*
X0057653D01*
X0058225Y0227421D01*
X0058415Y0227231D01*
X0058606Y022685D01*
Y0226469D01*
X0058415Y0226088D01*
X0057844Y0225707D01*
X0056892Y0225326D01*
X0056511Y0225136D01*
X005613Y0224755D01*
X005594Y0224184D01*
Y0223612D01*
X0057653Y0227611D02*
X0058034Y0227421D01*
X0058225Y0227231D01*
X0058415Y022685D01*
Y0226469D01*
X0058225Y0226088D01*
X0057653Y0225707D01*
X0056892Y0225326D01*
X005594Y0223993D02*
X005613Y0224184D01*
X0056511D01*
X0057463Y0223803D01*
X0058034D01*
X0058415Y0223993D01*
X0058606Y0224184D01*
Y0224565D01*
X0056511Y0224184D02*
X0057463Y0223612D01*
X0058225D01*
X0058415Y0223803D01*
X0058606Y0224184D01*
X0060339Y0227611D02*
X0059767Y0227421D01*
X0059386Y022685D01*
X0059196Y0225898D01*
Y0225326D01*
X0059386Y0224374D01*
X0059767Y0223803D01*
X0060339Y0223612D01*
X0060719D01*
X0061291Y0223803D01*
X0061672Y0224374D01*
X0061862Y0225326D01*
Y0225898D01*
X0061672Y022685D01*
X0061291Y0227421D01*
X0060719Y0227611D01*
X0060339D01*
X0059958Y0227421D01*
X0059767Y0227231D01*
X0059577Y022685D01*
X0059386Y0225898D01*
Y0225326D01*
X0059577Y0224374D01*
X0059767Y0223993D01*
X0059958Y0223803D01*
X0060339Y0223612D01*
X0060719D02*
X00611Y0223803D01*
X0061291Y0223993D01*
X0061481Y0224374D01*
X0061672Y0225326D01*
Y0225898D01*
X0061481Y022685D01*
X0061291Y0227231D01*
X00611Y0227421D01*
X0060719Y0227611D01*
X0062643Y022685D02*
X0062833Y0226659D01*
X0062643Y0226469D01*
X0062452Y0226659D01*
Y022685D01*
X0062643Y0227231D01*
X0062833Y0227421D01*
X0063405Y0227611D01*
X0064166D01*
X0064738Y0227421D01*
X0064928Y0227231D01*
X0065118Y022685D01*
Y0226469D01*
X0064928Y0226088D01*
X0064357Y0225707D01*
X0063405Y0225326D01*
X0063024Y0225136D01*
X0062643Y0224755D01*
X0062452Y0224184D01*
Y0223612D01*
X0064166Y0227611D02*
X0064547Y0227421D01*
X0064738Y0227231D01*
X0064928Y022685D01*
Y0226469D01*
X0064738Y0226088D01*
X0064166Y0225707D01*
X0063405Y0225326D01*
X0062452Y0223993D02*
X0062643Y0224184D01*
X0063024D01*
X0063976Y0223803D01*
X0064547D01*
X0064928Y0223993D01*
X0065118Y0224184D01*
Y0224565D01*
X0063024Y0224184D02*
X0063976Y0223612D01*
X0064738D01*
X0064928Y0223803D01*
X0065118Y0224184D01*
X0066852Y0227611D02*
X006628Y0227421D01*
X0065899Y022685D01*
X0065709Y0225898D01*
Y0225326D01*
X0065899Y0224374D01*
X006628Y0223803D01*
X0066852Y0223612D01*
X0067232D01*
X0067804Y0223803D01*
X0068185Y0224374D01*
X0068375Y0225326D01*
Y0225898D01*
X0068185Y022685D01*
X0067804Y0227421D01*
X0067232Y0227611D01*
X0066852D01*
X0066471Y0227421D01*
X006628Y0227231D01*
X006609Y022685D01*
X0065899Y0225898D01*
Y0225326D01*
X006609Y0224374D01*
X006628Y0223993D01*
X0066471Y0223803D01*
X0066852Y0223612D01*
X0067232D02*
X0067613Y0223803D01*
X0067804Y0223993D01*
X0067994Y0224374D01*
X0068185Y0225326D01*
Y0225898D01*
X0067994Y022685D01*
X0067804Y0227231D01*
X0067613Y0227421D01*
X0067232Y0227611D01*
M02*
